<svg width="39" height="39" viewBox="0 0 39 39" fill="none" xmlns="http://www.w3.org/2000/svg">
<path d="M22.3438 14.625C22.3438 14.3018 22.2153 13.9918 21.9868 13.7632C21.7582 13.5347 21.4482 13.4062 21.125 13.4062C20.8018 13.4062 20.4918 13.5347 20.2632 13.7632C20.0347 13.9918 19.9062 14.3018 19.9062 14.625V16.6562H17.875C17.5518 16.6562 17.2418 16.7847 17.0132 17.0132C16.7847 17.2418 16.6562 17.5518 16.6562 17.875C16.6562 18.1982 16.7847 18.5082 17.0132 18.7368C17.2418 18.9653 17.5518 19.0938 17.875 19.0938H19.9062V21.125C19.9062 21.4482 20.0347 21.7582 20.2632 21.9868C20.4918 22.2153 20.8018 22.3438 21.125 22.3438C21.4482 22.3438 21.7582 22.2153 21.9868 21.9868C22.2153 21.7582 22.3438 21.4482 22.3438 21.125V19.0938H24.375C24.6982 19.0938 25.0082 18.9653 25.2368 18.7368C25.4653 18.5082 25.5938 18.1982 25.5938 17.875C25.5938 17.5518 25.4653 17.2418 25.2368 17.0132C25.0082 16.7847 24.6982 16.6562 24.375 16.6562H22.3438V14.625Z" fill="white"/>
<path fill-rule="evenodd" clip-rule="evenodd" d="M2.10103 4.47037C2.20817 4.16549 2.43202 3.91565 2.72334 3.77577C3.01466 3.6359 3.34961 3.61746 3.65453 3.7245L4.14365 3.89675C5.14628 4.24937 5.99615 4.54837 6.66728 4.87662C7.38228 5.22925 7.99653 5.6615 8.45803 6.3375C8.91628 7.007 9.1064 7.74312 9.19253 8.55075L9.2104 8.72625H27.8199C29.1508 8.72625 30.506 8.72625 31.6224 8.85137C32.1912 8.91475 32.755 9.0155 33.2523 9.191C33.7398 9.36162 34.2777 9.64275 34.6595 10.14C35.2803 10.946 35.3892 11.8852 35.3307 12.8375C35.2738 13.7442 35.0495 14.872 34.7814 16.2126L34.7652 16.2987L34.7619 16.3052L33.9364 20.319C33.6927 21.4987 33.4879 22.4916 33.223 23.2765C32.9435 24.1052 32.5568 24.8365 31.8629 25.402C31.169 25.9659 30.3744 26.1982 29.505 26.3055C28.6844 26.4062 27.6688 26.4062 26.4663 26.4062H17.6799C15.4943 26.4062 13.723 26.4062 12.3288 26.208C10.8712 26.0016 9.64753 25.558 8.6839 24.5407C7.79503 23.6047 7.32053 22.6102 7.08328 21.2225C6.86065 19.9225 6.83953 18.2195 6.83953 15.86V11.4367C6.83953 10.2342 6.83628 9.42987 6.76965 8.81237C6.70465 8.2225 6.59253 7.92675 6.44465 7.71225C6.30328 7.50262 6.08715 7.306 5.59315 7.0655C5.06828 6.80875 4.3549 6.55525 3.2694 6.17337L2.8469 6.0255C2.69561 5.97262 2.55622 5.89041 2.43674 5.7836C2.31725 5.67678 2.22001 5.54744 2.15058 5.40299C2.08115 5.25854 2.04089 5.10181 2.0321 4.94178C2.02332 4.78175 2.04782 4.62156 2.10103 4.47037ZM9.2754 11.1637V15.86C9.2754 18.2796 9.30465 19.7567 9.48665 20.8114C9.65078 21.7782 9.9319 22.3145 10.4519 22.8637C10.8955 23.3317 11.5082 23.6307 12.67 23.7949C13.8725 23.9655 15.4715 23.9687 17.7725 23.9687H26.3915C27.6899 23.9687 28.5528 23.9671 29.2093 23.8875C29.83 23.8111 30.1193 23.6779 30.3224 23.5121C30.5255 23.3464 30.7124 23.0896 30.9139 22.4965C31.1252 21.8709 31.3007 21.0259 31.5639 19.7535L32.3732 15.821V15.8177C32.6624 14.3715 32.8525 13.4095 32.8964 12.688C32.9387 12.0039 32.8314 11.7634 32.7323 11.6317C32.6455 11.568 32.5481 11.5201 32.4447 11.4904C32.0896 11.3785 31.7235 11.3055 31.3527 11.2726C30.3858 11.1654 29.1605 11.1637 27.7695 11.1637H9.2754ZM8.53115 31.6875C8.53115 32.6572 8.91636 33.5872 9.60204 34.2729C10.2877 34.9585 11.2177 35.3437 12.1874 35.3437C13.1571 35.3437 14.0871 34.9585 14.7728 34.2729C15.4584 33.5872 15.8437 32.6572 15.8437 31.6875C15.8437 30.7178 15.4584 29.7878 14.7728 29.1021C14.0871 28.4165 13.1571 28.0312 12.1874 28.0312C11.2177 28.0312 10.2877 28.4165 9.60204 29.1021C8.91636 29.7878 8.53115 30.7178 8.53115 31.6875ZM12.1874 32.9062C11.8642 32.9062 11.5542 32.7778 11.3256 32.5493C11.0971 32.3207 10.9687 32.0107 10.9687 31.6875C10.9687 31.3643 11.0971 31.0543 11.3256 30.8257C11.5542 30.5972 11.8642 30.4687 12.1874 30.4687C12.5106 30.4687 12.8206 30.5972 13.0492 30.8257C13.2777 31.0543 13.4062 31.3643 13.4062 31.6875C13.4062 32.0107 13.2777 32.3207 13.0492 32.5493C12.8206 32.7778 12.5106 32.9062 12.1874 32.9062ZM23.1562 31.6875C23.1562 32.1676 23.2507 32.6431 23.4345 33.0867C23.6182 33.5303 23.8875 33.9333 24.227 34.2729C24.5666 34.6124 24.9696 34.8817 25.4132 35.0654C25.8568 35.2492 26.3323 35.3437 26.8124 35.3437C27.2925 35.3437 27.768 35.2492 28.2116 35.0654C28.6552 34.8817 29.0582 34.6124 29.3978 34.2729C29.7373 33.9333 30.0066 33.5303 30.1903 33.0867C30.3741 32.6431 30.4687 32.1676 30.4687 31.6875C30.4687 30.7178 30.0834 29.7878 29.3978 29.1021C28.7121 28.4165 27.7821 28.0312 26.8124 28.0312C25.8427 28.0312 24.9127 28.4165 24.227 29.1021C23.5414 29.7878 23.1562 30.7178 23.1562 31.6875ZM26.8124 32.9062C26.4892 32.9062 26.1792 32.7778 25.9506 32.5493C25.7221 32.3207 25.5937 32.0107 25.5937 31.6875C25.5937 31.3643 25.7221 31.0543 25.9506 30.8257C26.1792 30.5972 26.4892 30.4687 26.8124 30.4687C27.1356 30.4687 27.4456 30.5972 27.6742 30.8257C27.9028 31.0543 28.0312 31.3643 28.0312 31.6875C28.0312 32.0107 27.9028 32.3207 27.6742 32.5493C27.4456 32.7778 27.1356 32.9062 26.8124 32.9062Z" fill="white"/>
</svg>
