<svg width="32" height="33" viewBox="0 0 32 33" fill="none" xmlns="http://www.w3.org/2000/svg">
<path d="M28.8424 13.8887H27.8019V13.8333H16.1769V19.1667H23.4768C22.4118 22.2713 19.5501 24.5 16.1769 24.5C11.897 24.5 8.42692 20.918 8.42692 16.5C8.42692 12.082 11.897 8.5 16.1769 8.5C18.1525 8.5 19.9499 9.26933 21.3184 10.526L24.9719 6.75467C22.665 4.53533 19.5792 3.16667 16.1769 3.16667C9.04369 3.16667 3.26025 9.13667 3.26025 16.5C3.26025 23.8633 9.04369 29.8333 16.1769 29.8333C23.3102 29.8333 29.0936 23.8633 29.0936 16.5C29.0936 15.606 29.0045 14.7333 28.8424 13.8887Z" fill="#FFC107"/>
<path d="M4.74951 10.294L8.99328 13.5067C10.1416 10.572 12.9225 8.5 16.1769 8.5C18.1525 8.5 19.9498 9.26933 21.3184 10.526L24.9718 6.75467C22.6649 4.53533 19.5791 3.16667 16.1769 3.16667C11.2156 3.16667 6.91305 6.058 4.74951 10.294Z" fill="#FF3D00"/>
<path d="M16.1768 29.8333C19.5132 29.8333 22.5447 28.5153 24.8368 26.372L20.8391 22.88C19.4987 23.9323 17.8608 24.5014 16.1768 24.5C12.8172 24.5 9.96453 22.2887 8.88986 19.2027L4.67773 22.5527C6.81544 26.8707 11.1567 29.8333 16.1768 29.8333Z" fill="#4CAF50"/>
<path d="M28.8422 13.8887H27.8018V13.8333H16.1768V19.1667H23.4766C22.9672 20.6443 22.0496 21.9355 20.8371 22.8807L20.839 22.8793L24.8367 26.3713C24.5539 26.6367 29.0934 23.1667 29.0934 16.5C29.0934 15.606 29.0043 14.7333 28.8422 13.8887Z" fill="#1976D2"/>
</svg>
