<svg width="34" height="36" viewBox="0 0 34 36" fill="none" xmlns="http://www.w3.org/2000/svg">
<path d="M17.3336 0.197205C15.5171 0.197205 13.7413 0.73586 12.231 1.74505C10.7206 2.75425 9.54342 4.18866 8.84828 5.86689C8.15313 7.54512 7.97125 9.39179 8.32563 11.1734C8.68001 12.955 9.55474 14.5915 10.8392 15.876C12.1237 17.1604 13.7602 18.0351 15.5418 18.3895C17.3234 18.7439 19.17 18.562 20.8483 17.8669C22.5265 17.1717 23.9609 15.9946 24.9701 14.4842C25.9793 12.9738 26.518 11.1981 26.518 9.38161C26.518 6.94575 25.5503 4.60966 23.8279 2.88725C22.1055 1.16484 19.7694 0.197205 17.3336 0.197205ZM17.3336 14.8922C16.2437 14.8922 15.1782 14.5691 14.272 13.9635C13.3658 13.358 12.6595 12.4974 12.2424 11.4904C11.8253 10.4835 11.7162 9.37549 11.9288 8.30653C12.1414 7.23757 12.6663 6.25567 13.4369 5.48499C14.2076 4.71432 15.1895 4.18948 16.2585 3.97685C17.3274 3.76422 18.4355 3.87335 19.4424 4.29044C20.4493 4.70752 21.31 5.41384 21.9155 6.32006C22.521 7.22628 22.8442 8.2917 22.8442 9.38161C22.8442 10.8431 22.2636 12.2448 21.2302 13.2782C20.1967 14.3117 18.7951 14.8922 17.3336 14.8922ZM33.8655 35.0979V33.261C33.8655 29.8508 32.5108 26.5803 30.0994 24.169C27.688 21.7576 24.4175 20.4029 21.0073 20.4029H13.6598C10.2496 20.4029 6.97908 21.7576 4.5677 24.169C2.15633 26.5803 0.801636 29.8508 0.801636 33.261V35.0979H4.4754V33.261C4.4754 30.8252 5.44304 28.4891 7.16544 26.7667C8.88785 25.0443 11.2239 24.0766 13.6598 24.0766H21.0073C23.4432 24.0766 25.7793 25.0443 27.5017 26.7667C29.2241 28.4891 30.1917 30.8252 30.1917 33.261V35.0979H33.8655Z" fill="black"/>
</svg>
