<svg width="23" height="16" viewBox="0 0 23 16" fill="none" xmlns="http://www.w3.org/2000/svg">
<path d="M1.56683 15.7354H21.5756C22.2634 15.7354 22.8262 15.1726 22.8262 14.4848C22.8262 13.797 22.2634 13.2343 21.5756 13.2343H1.56683C0.879031 13.2343 0.316284 13.797 0.316284 14.4848C0.316284 15.1726 0.879031 15.7354 1.56683 15.7354ZM1.56683 9.4826H21.5756C22.2634 9.4826 22.8262 8.91986 22.8262 8.23206C22.8262 7.54425 22.2634 6.98151 21.5756 6.98151H1.56683C0.879031 6.98151 0.316284 7.54425 0.316284 8.23206C0.316284 8.91986 0.879031 9.4826 1.56683 9.4826ZM0.316284 1.97931C0.316284 2.66711 0.879031 3.22986 1.56683 3.22986H21.5756C22.2634 3.22986 22.8262 2.66711 22.8262 1.97931C22.8262 1.29151 22.2634 0.72876 21.5756 0.72876H1.56683C0.879031 0.72876 0.316284 1.29151 0.316284 1.97931Z" fill="#E6E6E6"/>
</svg>
