<svg width="18" height="20" viewBox="0 0 18 20" fill="none" xmlns="http://www.w3.org/2000/svg">
<path d="M12.444 8.78016V4.93574C12.444 4.08607 12.1065 3.2712 11.5057 2.67039C10.9048 2.06959 10.09 1.73206 9.2403 1.73206C8.39064 1.73206 7.57577 2.06959 6.97496 2.67039C6.37415 3.2712 6.03662 4.08607 6.03662 4.93574V8.78016M15.7382 7.07751L16.8172 17.3293C16.877 17.8974 16.4328 18.3912 15.8612 18.3912H2.61936C2.48456 18.3913 2.35123 18.3631 2.22804 18.3084C2.10485 18.2536 1.99456 18.1736 1.90432 18.0735C1.81408 17.9733 1.74592 17.8553 1.70427 17.7271C1.66261 17.5989 1.64839 17.4634 1.66253 17.3293L2.74238 7.07751C2.76729 6.84134 2.87875 6.62276 3.05528 6.4639C3.2318 6.30505 3.46088 6.21717 3.69836 6.21721H14.7822C15.2743 6.21721 15.687 6.58884 15.7382 7.07751ZM6.35699 8.78016C6.35699 8.86512 6.32324 8.94661 6.26316 9.00669C6.20308 9.06677 6.12159 9.10053 6.03662 9.10053C5.95166 9.10053 5.87017 9.06677 5.81009 9.00669C5.75001 8.94661 5.71625 8.86512 5.71625 8.78016C5.71625 8.69519 5.75001 8.6137 5.81009 8.55362C5.87017 8.49354 5.95166 8.45979 6.03662 8.45979C6.12159 8.45979 6.20308 8.49354 6.26316 8.55362C6.32324 8.6137 6.35699 8.69519 6.35699 8.78016ZM12.7644 8.78016C12.7644 8.86512 12.7306 8.94661 12.6705 9.00669C12.6104 9.06677 12.529 9.10053 12.444 9.10053C12.359 9.10053 12.2775 9.06677 12.2175 9.00669C12.1574 8.94661 12.1236 8.86512 12.1236 8.78016C12.1236 8.69519 12.1574 8.6137 12.2175 8.55362C12.2775 8.49354 12.359 8.45979 12.444 8.45979C12.529 8.45979 12.6104 8.49354 12.6705 8.55362C12.7306 8.6137 12.7644 8.69519 12.7644 8.78016Z" stroke="black" stroke-width="2" stroke-linecap="round" stroke-linejoin="round"/>
</svg>
