<svg width="34" height="37" viewBox="0 0 34 37" fill="none" xmlns="http://www.w3.org/2000/svg">
<path d="M23.1521 16.1379V8.60903C23.1521 6.94504 22.491 5.34921 21.3144 4.17259C20.1378 2.99598 18.542 2.33496 16.878 2.33496C15.214 2.33496 13.6182 2.99598 12.4416 4.17259C11.2649 5.34921 10.6039 6.94504 10.6039 8.60903V16.1379M29.6035 12.8035L31.7166 32.8805C31.8337 33.9931 30.9637 34.9601 29.8444 34.9601H3.91158C3.64758 34.9604 3.38647 34.9051 3.14522 34.7979C2.90397 34.6907 2.68797 34.534 2.51125 34.3378C2.33453 34.1417 2.20104 33.9106 2.11946 33.6595C2.03788 33.4085 2.01004 33.143 2.03773 32.8805L4.15251 12.8035C4.20129 12.3409 4.41957 11.9129 4.76527 11.6018C5.11098 11.2907 5.55961 11.1186 6.02469 11.1187H27.7313C28.695 11.1187 29.5031 11.8464 29.6035 12.8035ZM11.2313 16.1379C11.2313 16.3043 11.1652 16.4639 11.0476 16.5816C10.9299 16.6992 10.7703 16.7653 10.6039 16.7653C10.4375 16.7653 10.2779 16.6992 10.1603 16.5816C10.0426 16.4639 9.97651 16.3043 9.97651 16.1379C9.97651 15.9715 10.0426 15.8119 10.1603 15.6943C10.2779 15.5766 10.4375 15.5105 10.6039 15.5105C10.7703 15.5105 10.9299 15.5766 11.0476 15.6943C11.1652 15.8119 11.2313 15.9715 11.2313 16.1379ZM23.7795 16.1379C23.7795 16.3043 23.7134 16.4639 23.5957 16.5816C23.478 16.6992 23.3185 16.7653 23.1521 16.7653C22.9857 16.7653 22.8261 16.6992 22.7084 16.5816C22.5908 16.4639 22.5247 16.3043 22.5247 16.1379C22.5247 15.9715 22.5908 15.8119 22.7084 15.6943C22.8261 15.5766 22.9857 15.5105 23.1521 15.5105C23.3185 15.5105 23.478 15.5766 23.5957 15.6943C23.7134 15.8119 23.7795 15.9715 23.7795 16.1379Z" stroke="black" stroke-width="3" stroke-linecap="round" stroke-linejoin="round"/>
</svg>
