<svg width="29" height="28" viewBox="0 0 29 28" fill="none" xmlns="http://www.w3.org/2000/svg">
<path fill-rule="evenodd" clip-rule="evenodd" d="M19.8282 0.0681763C19.47 0.51367 19.2003 1.02353 19.0335 1.57031H18.0823C16.8847 1.57031 15.7362 2.04604 14.8894 2.89285C14.0426 3.73966 13.5668 4.88817 13.5668 6.08574C13.5668 7.28331 14.0426 8.43183 14.8894 9.27863C15.7362 10.1254 16.8847 10.6012 18.0823 10.6012H19.0305C19.2412 11.2875 19.6175 11.9347 20.1594 12.4766C20.5997 12.9174 21.1267 13.262 21.707 13.4887C22.2873 13.7154 22.9084 13.8192 23.5309 13.7936V24.1505H26.5412C26.9404 24.1505 27.3232 24.3091 27.6055 24.5913C27.8877 24.8736 28.0463 25.2564 28.0463 25.6556C28.0463 26.0548 27.8877 26.4377 27.6055 26.7199C27.3232 27.0022 26.9404 27.1608 26.5412 27.1608H2.45888C2.05969 27.1608 1.67685 27.0022 1.39458 26.7199C1.11231 26.4377 0.953735 26.0548 0.953735 25.6556C0.953735 25.2564 1.11231 24.8736 1.39458 24.5913C1.67685 24.3091 2.05969 24.1505 2.45888 24.1505V3.07846C2.45888 2.28009 2.77603 1.51441 3.34057 0.949869C3.90511 0.385331 4.67079 0.0681763 5.46917 0.0681763H19.8282ZM16.7577 15.1196C16.159 15.1196 15.5847 15.3575 15.1613 15.7809C14.7379 16.2043 14.5 16.7785 14.5 17.3773C14.5 17.9761 14.7379 18.5504 15.1613 18.9738C15.5847 19.3972 16.159 19.635 16.7577 19.635C17.3565 19.635 17.9308 19.3972 18.3542 18.9738C18.7776 18.5504 19.0155 17.9761 19.0155 17.3773C19.0155 16.7785 18.7776 16.2043 18.3542 15.7809C17.9308 15.3575 17.3565 15.1196 16.7577 15.1196ZM24.4144 1.8322L27.6053 5.02311C27.887 5.3053 28.0453 5.68775 28.0453 6.08649C28.0453 6.48524 27.887 6.86768 27.6053 7.14988L24.4144 10.3453C24.2757 10.4892 24.1097 10.6039 23.9261 10.6829C23.7425 10.762 23.545 10.8036 23.3452 10.8055C23.1453 10.8074 22.9471 10.7694 22.7621 10.6939C22.5771 10.6183 22.4089 10.5067 22.2675 10.3655C22.1261 10.2242 22.0142 10.0563 21.9384 9.87134C21.8626 9.68642 21.8244 9.48826 21.826 9.2884C21.8276 9.08855 21.8689 8.89102 21.9477 8.70733C22.0264 8.52364 22.141 8.35748 22.2846 8.21853L22.9108 7.59089H18.0823C17.6831 7.59089 17.3002 7.43231 17.018 7.15004C16.7357 6.86777 16.5771 6.48493 16.5771 6.08574C16.5771 5.68655 16.7357 5.30371 17.018 5.02144C17.3002 4.73917 17.6831 4.5806 18.0823 4.5806H22.9063L22.2861 3.96048C22.012 3.6766 21.8603 3.2964 21.8637 2.90176C21.8671 2.50711 22.0254 2.12961 22.3045 1.85054C22.5835 1.57147 22.961 1.41318 23.3557 1.40975C23.7503 1.40632 24.1305 1.55803 24.4144 1.8322Z" fill="black"/>
</svg>
