<svg width="740" height="717" viewBox="0 0 740 717" fill="none" xmlns="http://www.w3.org/2000/svg">
<path d="M318.98 716.996C474.392 716.996 600.378 709.148 600.378 699.466C600.378 689.784 474.392 681.935 318.98 681.935C163.567 681.935 37.5811 689.784 37.5811 699.466C37.5811 709.148 163.567 716.996 318.98 716.996Z" fill="#92E3A9"/>
<path opacity="0.8" d="M318.98 716.996C474.392 716.996 600.378 709.148 600.378 699.466C600.378 689.784 474.392 681.935 318.98 681.935C163.567 681.935 37.5811 689.784 37.5811 699.466C37.5811 709.148 163.567 716.996 318.98 716.996Z" fill="white"/>
<path d="M530.438 32.8509H247.492C227.957 32.8509 212.122 48.6868 212.122 68.2214V665.57C212.122 685.104 227.957 700.94 247.492 700.94H530.438C549.973 700.94 565.808 685.104 565.808 665.57V68.2214C565.808 48.6868 549.973 32.8509 530.438 32.8509Z" fill="#263238"/>
<path d="M550.08 106.213H227.832V627.578H550.08V106.213Z" fill="white" stroke="#263238" stroke-width="1.33739" stroke-miterlimit="10"/>
<path d="M438.355 317.329C465.633 290.051 465.633 245.825 438.355 218.548C411.078 191.27 366.852 191.27 339.574 218.548C312.296 245.825 312.296 290.051 339.574 317.329C366.852 344.607 411.078 344.607 438.355 317.329Z" fill="#92E3A9"/>
<path d="M480.668 594.792H297.28C296.867 594.795 296.458 594.716 296.076 594.559C295.694 594.403 295.347 594.173 295.054 593.882C294.762 593.591 294.529 593.245 294.371 592.864C294.212 592.483 294.131 592.074 294.131 591.661C294.128 591.247 294.208 590.836 294.366 590.453C294.523 590.07 294.755 589.722 295.048 589.429C295.341 589.136 295.689 588.904 296.072 588.747C296.455 588.589 296.866 588.51 297.28 588.512H480.668C481.081 588.512 481.489 588.594 481.87 588.752C482.252 588.911 482.598 589.143 482.889 589.435C483.179 589.728 483.41 590.075 483.566 590.457C483.722 590.839 483.802 591.249 483.799 591.661C483.799 592.492 483.469 593.288 482.882 593.875C482.295 594.463 481.498 594.792 480.668 594.792Z" fill="#92E3A9"/>
<path d="M486.639 377.053H291.291C287.259 377.053 283.991 380.322 283.991 384.353V407.381C283.991 411.413 287.259 414.681 291.291 414.681H486.639C490.671 414.681 493.939 411.413 493.939 407.381V384.353C493.939 380.322 490.671 377.053 486.639 377.053Z" fill="#92E3A9"/>
<path d="M486.639 447.43H291.291C287.259 447.43 283.991 450.699 283.991 454.73V477.758C283.991 481.79 287.259 485.058 291.291 485.058H486.639C490.671 485.058 493.939 481.79 493.939 477.758V454.73C493.939 450.699 490.671 447.43 486.639 447.43Z" fill="#92E3A9"/>
<path d="M423.744 302.781L403.192 290.948V281.173C406.168 277.572 408.323 273.367 409.508 268.848C410.216 269.1 410.961 269.229 411.711 269.231C414.26 269.231 415.88 261.33 416.153 255.687C419.12 249.407 415.079 245.729 415.079 245.729C415.079 245.729 416.754 244.055 417.864 237.337C418.975 230.62 413.95 233.423 410.036 227.27C406.122 221.117 403.319 214.418 390.467 214.418C386.926 214.302 383.431 215.253 380.438 217.149C377.445 219.045 375.091 221.798 373.683 225.049C370.484 225.061 367.296 225.434 364.18 226.16C360.248 227.27 359.138 240.141 362.487 245.183C363.987 247.939 364.787 251.021 364.817 254.158C363.925 253.066 362.997 252.774 362.487 255.25C361.377 260.839 365.855 268.666 365.855 268.666L368.167 268.011C369.332 272.84 371.579 277.34 374.739 281.173V290.948L354.186 302.781C351.786 304.167 349.793 306.159 348.406 308.559C347.019 310.958 346.288 313.681 346.286 316.452V323.224C358.509 332.667 373.519 337.789 388.965 337.789C404.411 337.789 419.421 332.667 431.645 323.224V316.452C431.646 313.68 430.916 310.956 429.529 308.556C428.142 306.156 426.147 304.164 423.744 302.781Z" fill="#263238"/>
<path d="M310.588 475.701C310.116 475.695 309.666 475.505 309.331 475.173C309.152 475.013 309.009 474.817 308.912 474.597C308.815 474.377 308.765 474.139 308.767 473.899C308.773 473.571 308.867 473.25 309.04 472.971L312.317 467.728L305.927 467.928C305.687 467.943 305.445 467.907 305.219 467.823C304.994 467.738 304.788 467.606 304.617 467.437C304.32 467.103 304.156 466.673 304.156 466.226C304.156 465.78 304.32 465.349 304.617 465.016C304.784 464.84 304.989 464.703 305.215 464.615C305.442 464.527 305.685 464.49 305.927 464.506L312.226 464.743L308.986 459.518C308.809 459.234 308.715 458.906 308.713 458.571C308.711 458.331 308.76 458.093 308.857 457.873C308.955 457.654 309.098 457.457 309.277 457.297C309.611 456.965 310.062 456.776 310.533 456.769C310.843 456.771 311.146 456.861 311.407 457.029C311.668 457.196 311.877 457.435 312.007 457.716L315.12 463.341L318.197 457.752C318.343 457.454 318.568 457.201 318.847 457.022C319.126 456.842 319.449 456.742 319.781 456.733C320.011 456.734 320.238 456.783 320.448 456.877C320.658 456.971 320.846 457.108 321 457.279C321.334 457.625 321.518 458.09 321.51 458.571C321.509 458.884 321.428 459.191 321.273 459.463L317.978 464.743L324.368 464.506C324.611 464.49 324.854 464.527 325.08 464.615C325.307 464.703 325.511 464.84 325.679 465.016C325.989 465.338 326.159 465.77 326.152 466.217C326.151 466.668 325.982 467.103 325.679 467.437C325.507 467.606 325.302 467.738 325.076 467.823C324.85 467.907 324.609 467.943 324.368 467.928L317.942 467.728L321.146 472.916C321.325 473.206 321.42 473.54 321.419 473.881C321.419 474.364 321.227 474.827 320.886 475.168C320.544 475.51 320.081 475.701 319.599 475.701C319.286 475.697 318.982 475.602 318.724 475.427C318.465 475.253 318.263 475.006 318.142 474.718L315.102 469.257L312.08 474.718C311.946 475.004 311.736 475.247 311.472 475.42C311.209 475.594 310.903 475.691 310.588 475.701Z" fill="#263238"/>
<path d="M340.114 475.701C339.643 475.695 339.193 475.505 338.858 475.173C338.679 475.013 338.536 474.817 338.439 474.597C338.342 474.377 338.292 474.14 338.294 473.899C338.3 473.571 338.394 473.25 338.567 472.971L341.844 467.728L335.472 467.928C335.229 467.939 334.986 467.902 334.758 467.817C334.53 467.733 334.321 467.603 334.143 467.437C333.902 467.187 333.741 466.871 333.681 466.529C333.622 466.187 333.667 465.835 333.81 465.519C333.953 465.203 334.189 464.937 334.485 464.756C334.782 464.576 335.126 464.488 335.472 464.506L341.753 464.743L338.512 459.518C338.336 459.234 338.242 458.906 338.239 458.571C338.238 458.331 338.287 458.093 338.384 457.873C338.482 457.654 338.625 457.457 338.804 457.297C339.138 456.965 339.588 456.776 340.06 456.769C340.37 456.771 340.673 456.861 340.934 457.029C341.195 457.196 341.403 457.435 341.534 457.716L344.647 463.341L347.724 457.752C347.87 457.454 348.094 457.201 348.373 457.022C348.653 456.842 348.976 456.742 349.307 456.733C349.538 456.732 349.766 456.78 349.976 456.874C350.186 456.968 350.374 457.106 350.527 457.279C350.696 457.449 350.829 457.651 350.92 457.872C351.01 458.094 351.056 458.332 351.055 458.571C351.048 458.886 350.961 459.193 350.8 459.463L347.505 464.743L353.913 464.542C354.153 464.526 354.393 464.563 354.617 464.652C354.84 464.74 355.041 464.877 355.206 465.052C355.516 465.374 355.686 465.806 355.679 466.253C355.678 466.705 355.509 467.139 355.206 467.473C355.037 467.642 354.835 467.774 354.612 467.859C354.389 467.943 354.151 467.979 353.913 467.965L347.469 467.764L350.673 472.953C350.852 473.242 350.947 473.577 350.946 473.917C350.946 474.4 350.754 474.863 350.413 475.205C350.071 475.546 349.608 475.738 349.125 475.738C348.813 475.734 348.509 475.638 348.25 475.464C347.992 475.289 347.79 475.043 347.669 474.755L344.629 469.294L341.607 474.755C341.468 475.033 341.255 475.269 340.992 475.436C340.729 475.603 340.426 475.694 340.114 475.701Z" fill="#263238"/>
<path d="M369.66 475.701C369.182 475.699 368.725 475.51 368.385 475.173C368.206 475.013 368.063 474.817 367.966 474.597C367.869 474.377 367.819 474.14 367.821 473.899C367.827 473.571 367.921 473.25 368.094 472.971L371.371 467.728L365 467.928C364.656 467.942 364.317 467.853 364.025 467.673C363.732 467.493 363.5 467.23 363.357 466.918C363.215 466.606 363.168 466.258 363.224 465.919C363.28 465.58 363.435 465.266 363.671 465.016C363.843 464.84 364.05 464.704 364.28 464.616C364.509 464.528 364.754 464.491 365 464.506L371.28 464.743L368.04 459.518C367.863 459.234 367.769 458.906 367.767 458.571C367.772 458.332 367.825 458.097 367.922 457.878C368.019 457.659 368.158 457.462 368.331 457.297C368.67 456.961 369.128 456.771 369.605 456.769C369.912 456.775 370.212 456.866 370.469 457.034C370.727 457.201 370.932 457.437 371.061 457.716L374.174 463.341L377.251 457.752C377.397 457.454 377.622 457.201 377.901 457.022C378.18 456.842 378.503 456.742 378.835 456.733C379.065 456.732 379.293 456.78 379.503 456.874C379.714 456.968 379.902 457.106 380.054 457.279C380.223 457.449 380.357 457.651 380.447 457.872C380.538 458.094 380.584 458.332 380.582 458.571C380.576 458.886 380.488 459.193 380.327 459.463L377.032 464.743L383.44 464.506C383.676 464.482 383.914 464.51 384.138 464.586C384.362 464.662 384.567 464.785 384.74 464.947C384.912 465.109 385.048 465.307 385.138 465.526C385.228 465.745 385.27 465.981 385.261 466.217C385.264 466.666 385.102 467.1 384.806 467.437C384.634 467.606 384.429 467.738 384.203 467.823C383.977 467.907 383.736 467.943 383.495 467.928L377.069 467.728L380.255 472.916C380.434 473.206 380.529 473.54 380.528 473.881C380.522 474.12 380.469 474.356 380.372 474.574C380.275 474.793 380.136 474.99 379.963 475.155C379.805 475.326 379.613 475.462 379.401 475.556C379.188 475.65 378.958 475.699 378.725 475.701C378.416 475.696 378.115 475.6 377.859 475.425C377.603 475.251 377.405 475.005 377.287 474.718L374.229 469.257L371.207 474.718C371.071 475.013 370.852 475.263 370.578 475.437C370.304 475.612 369.985 475.703 369.66 475.701Z" fill="#263238"/>
<path d="M399.186 475.701C398.709 475.699 398.251 475.51 397.912 475.173C397.569 474.837 397.373 474.379 397.366 473.899C397.36 473.572 397.449 473.249 397.621 472.971L400.897 467.728L394.526 467.928C394.283 467.939 394.04 467.902 393.812 467.817C393.584 467.733 393.375 467.603 393.197 467.437C392.9 467.103 392.736 466.673 392.736 466.226C392.736 465.78 392.9 465.349 393.197 465.016C393.373 464.846 393.581 464.713 393.81 464.625C394.038 464.538 394.282 464.497 394.526 464.506L400.825 464.743L397.603 459.518C397.426 459.234 397.332 458.906 397.33 458.571C397.335 458.332 397.388 458.097 397.485 457.878C397.582 457.659 397.721 457.462 397.894 457.297C398.233 456.961 398.691 456.771 399.168 456.769C399.478 456.771 399.782 456.861 400.043 457.029C400.304 457.196 400.512 457.435 400.643 457.716L403.737 463.341L406.814 457.752C406.96 457.454 407.184 457.201 407.464 457.022C407.743 456.842 408.066 456.742 408.398 456.733C408.628 456.732 408.856 456.78 409.066 456.874C409.277 456.968 409.464 457.106 409.617 457.279C409.786 457.449 409.919 457.651 410.01 457.872C410.101 458.094 410.147 458.332 410.145 458.571C410.139 458.886 410.051 459.193 409.89 459.463L406.595 464.743L413.003 464.506C413.239 464.482 413.477 464.51 413.701 464.586C413.925 464.662 414.13 464.785 414.303 464.947C414.475 465.109 414.611 465.307 414.701 465.526C414.791 465.745 414.833 465.981 414.824 466.217C414.827 466.666 414.665 467.1 414.368 467.437C414.197 467.606 413.992 467.738 413.766 467.823C413.54 467.907 413.299 467.943 413.058 467.928L406.632 467.728L409.817 472.916C409.997 473.206 410.092 473.54 410.091 473.881C410.092 474.121 410.043 474.359 409.946 474.579C409.848 474.799 409.705 474.995 409.526 475.155C409.368 475.326 409.176 475.462 408.964 475.556C408.751 475.65 408.521 475.699 408.288 475.701C407.979 475.696 407.678 475.6 407.422 475.425C407.166 475.251 406.968 475.005 406.85 474.718L403.792 469.257L400.77 474.718C400.631 475.019 400.407 475.273 400.126 475.447C399.844 475.622 399.518 475.711 399.186 475.701Z" fill="#263238"/>
<path d="M428.714 475.701C428.236 475.699 427.778 475.51 427.439 475.173C427.157 474.888 426.978 474.517 426.928 474.119C426.879 473.72 426.963 473.317 427.166 472.971L430.425 467.728L424.053 467.928C423.81 467.939 423.567 467.902 423.339 467.817C423.111 467.733 422.902 467.603 422.724 467.437C422.428 467.103 422.264 466.673 422.264 466.226C422.264 465.78 422.428 465.349 422.724 465.016C422.9 464.846 423.109 464.713 423.337 464.625C423.565 464.538 423.809 464.497 424.053 464.506L430.352 464.743L427.112 459.518C426.935 459.234 426.841 458.906 426.839 458.571C426.845 458.091 427.042 457.633 427.385 457.297C427.724 456.961 428.181 456.771 428.659 456.769C428.969 456.771 429.272 456.861 429.533 457.029C429.794 457.196 430.003 457.435 430.134 457.716L433.228 463.341L436.305 457.752C436.451 457.454 436.675 457.201 436.955 457.022C437.234 456.842 437.557 456.742 437.889 456.733C438.122 456.732 438.352 456.78 438.566 456.874C438.779 456.968 438.97 457.106 439.126 457.279C439.46 457.625 439.644 458.09 439.636 458.571C439.63 458.886 439.542 459.193 439.381 459.463L436.086 464.743L442.494 464.506C442.73 464.482 442.968 464.51 443.192 464.586C443.416 464.662 443.621 464.785 443.794 464.947C443.966 465.109 444.102 465.307 444.192 465.526C444.282 465.745 444.324 465.981 444.315 466.217C444.318 466.666 444.156 467.1 443.859 467.437C443.688 467.606 443.483 467.738 443.257 467.823C443.031 467.907 442.79 467.943 442.549 467.928L436.123 467.728L439.308 472.916C439.488 473.206 439.583 473.54 439.581 473.881C439.583 474.121 439.534 474.359 439.437 474.579C439.339 474.799 439.196 474.995 439.017 475.155C438.859 475.326 438.667 475.462 438.455 475.556C438.242 475.65 438.012 475.699 437.779 475.701C437.47 475.696 437.169 475.6 436.913 475.425C436.657 475.251 436.459 475.005 436.341 474.718L433.283 469.257L430.261 474.718C430.125 475.013 429.906 475.263 429.632 475.437C429.358 475.612 429.039 475.703 428.714 475.701Z" fill="#263238"/>
<path d="M458.241 475.701C457.769 475.695 457.319 475.505 456.984 475.173C456.805 475.013 456.662 474.817 456.565 474.597C456.468 474.377 456.418 474.14 456.42 473.899C456.426 473.571 456.52 473.25 456.693 472.971L459.952 467.728L453.58 467.928C453.346 467.946 453.11 467.915 452.889 467.836C452.667 467.758 452.464 467.635 452.293 467.474C452.122 467.313 451.986 467.118 451.894 466.901C451.802 466.685 451.757 466.452 451.76 466.217C451.759 465.994 451.802 465.774 451.886 465.567C451.97 465.361 452.094 465.174 452.251 465.016C452.419 464.84 452.623 464.703 452.85 464.615C453.077 464.527 453.32 464.49 453.562 464.506L459.861 464.743L456.62 459.518C456.444 459.234 456.35 458.906 456.347 458.571C456.354 458.091 456.55 457.633 456.893 457.297C457.233 456.961 457.69 456.771 458.168 456.769C458.478 456.771 458.781 456.861 459.042 457.029C459.303 457.196 459.511 457.435 459.642 457.716L462.737 463.341L465.832 457.752C465.976 457.457 466.198 457.206 466.474 457.026C466.749 456.847 467.069 456.745 467.397 456.733C467.63 456.732 467.861 456.78 468.074 456.874C468.288 456.968 468.479 457.106 468.635 457.279C468.969 457.625 469.152 458.09 469.145 458.571C469.144 458.884 469.062 459.191 468.908 459.463L465.613 464.743L472.003 464.506C472.245 464.49 472.488 464.527 472.715 464.615C472.942 464.703 473.146 464.84 473.314 465.016C473.624 465.338 473.794 465.77 473.787 466.217C473.786 466.668 473.617 467.103 473.314 467.437C473.142 467.606 472.937 467.738 472.711 467.823C472.485 467.907 472.244 467.943 472.003 467.928L465.577 467.728L468.763 472.916C468.942 473.206 469.037 473.54 469.036 473.881C469.029 474.361 468.832 474.819 468.489 475.155C468.158 475.494 467.707 475.69 467.233 475.701C466.924 475.696 466.623 475.6 466.367 475.425C466.111 475.251 465.913 475.005 465.795 474.718L462.737 469.257L459.715 474.718C459.584 475.002 459.377 475.245 459.117 475.418C458.856 475.592 458.553 475.69 458.241 475.701Z" fill="#263238"/>
<g style="mix-blend-mode:multiply">
<path d="M550.08 106.905H227.832V127.093H550.08V106.905Z" fill="#92E3A9"/>
</g>
<path d="M423.999 69.7142H353.913C352.648 69.7142 351.435 69.2117 350.54 68.3172C349.646 67.4228 349.144 66.2096 349.144 64.9447C349.144 63.6797 349.646 62.4666 350.54 61.5722C351.435 60.6777 352.648 60.1752 353.913 60.1752H423.999C425.264 60.1752 426.477 60.6777 427.371 61.5722C428.266 62.4666 428.768 63.6797 428.768 64.9447C428.768 66.2096 428.266 67.4228 427.371 68.3172C426.477 69.2117 425.264 69.7142 423.999 69.7142Z" fill="#92E3A9" stroke="#263238" stroke-width="1.33739" stroke-linecap="round" stroke-linejoin="round"/>
<path d="M408.07 657.032C408.074 653.25 406.955 649.552 404.857 646.406C402.758 643.26 399.773 640.807 396.279 639.358C392.786 637.909 388.941 637.529 385.232 638.266C381.522 639.003 378.115 640.824 375.44 643.498C372.766 646.172 370.945 649.58 370.208 653.289C369.471 656.999 369.851 660.844 371.3 664.337C372.749 667.83 375.202 670.816 378.348 672.914C381.494 675.013 385.192 676.132 388.974 676.128C394.037 676.123 398.892 674.11 402.472 670.53C406.052 666.95 408.066 662.095 408.07 657.032Z" fill="#92E3A9"/>
<path d="M398.659 647.348H379.29V666.717H398.659V647.348Z" fill="#92E3A9" stroke="#263238" stroke-width="1.33739" stroke-linecap="round" stroke-linejoin="round"/>
<path d="M619.693 437.236C619.693 437.236 594.317 372.757 616.908 365.093C640.427 357.102 639.39 399.681 638.48 420.434C636.568 464.779 631.671 473.025 628.012 462.194L619.693 437.236ZM612.066 487.534C619.038 496.636 621.004 487.206 608.425 444.627C602.527 424.603 589.711 384.099 570.051 399.299C551.173 413.862 596.101 466.654 596.101 466.654L612.066 487.534ZM598.595 524.488C605.239 530.386 605.366 522.941 589.583 492.194C582.174 477.795 566.501 448.65 553.667 463.068C541.343 476.976 583.339 510.781 583.339 510.781L598.595 524.488ZM584.031 568.433C590.676 574.349 590.803 566.886 575.02 536.157C567.611 521.758 551.937 492.595 539.104 507.031C526.852 520.975 568.722 554.78 568.722 554.78L584.031 568.433ZM626.083 478.978C615.451 483.129 623.898 487.643 668.298 487.516C689.123 487.516 731.648 486.569 722.582 463.432C713.899 441.205 650.658 469.512 650.658 469.512L626.083 478.978ZM613.977 508.542C602.727 510.489 610.118 516.606 653.662 525.308C674.069 529.403 715.92 536.958 711.642 512.565C707.546 489.045 639.936 504.227 639.936 504.227L613.977 508.542ZM600.433 544.64C590.858 546.024 596.974 551.358 633.583 559.731C650.749 563.663 685.974 571.036 682.916 550.229C680.003 530.204 622.478 541.527 622.478 541.527L600.433 544.64ZM590.148 578.081C580.773 580.466 587.417 585.126 624.736 589.568C642.211 591.643 678.019 595.248 672.794 574.877C667.752 555.326 611.756 572.638 611.756 572.638L590.148 578.081ZM645.015 442.697C639.554 454.931 650.895 453.074 689.451 419.433C707.509 403.65 743.736 370.628 715.046 354.189C687.503 338.388 657.885 414.627 657.885 414.627L645.015 442.697ZM591.568 621.643C585.797 625.011 591.458 626.322 617.927 621.043C630.342 618.585 655.591 613.124 647.054 602.347C638.789 591.971 604.93 613.816 604.93 613.816L591.568 621.643Z" fill="#92E3A9"/>
<path opacity="0.3" d="M619.693 437.236C619.693 437.236 594.317 372.757 616.908 365.093C640.427 357.102 639.39 399.681 638.48 420.434C636.568 464.779 631.671 473.025 628.012 462.194L619.693 437.236ZM612.066 487.534C619.038 496.636 621.004 487.206 608.425 444.627C602.527 424.603 589.711 384.099 570.051 399.299C551.173 413.862 596.101 466.654 596.101 466.654L612.066 487.534ZM598.595 524.488C605.239 530.386 605.366 522.941 589.583 492.194C582.174 477.795 566.501 448.65 553.667 463.068C541.343 476.976 583.339 510.781 583.339 510.781L598.595 524.488ZM584.031 568.433C590.676 574.349 590.803 566.886 575.02 536.157C567.611 521.758 551.937 492.595 539.104 507.031C526.852 520.975 568.722 554.78 568.722 554.78L584.031 568.433ZM626.083 478.978C615.451 483.129 623.898 487.643 668.298 487.516C689.123 487.516 731.648 486.569 722.582 463.432C713.899 441.205 650.658 469.512 650.658 469.512L626.083 478.978ZM613.977 508.542C602.727 510.489 610.118 516.606 653.662 525.308C674.069 529.403 715.92 536.958 711.642 512.565C707.546 489.045 639.936 504.227 639.936 504.227L613.977 508.542ZM600.433 544.64C590.858 546.024 596.974 551.358 633.583 559.731C650.749 563.663 685.974 571.036 682.916 550.229C680.003 530.204 622.478 541.527 622.478 541.527L600.433 544.64ZM590.148 578.081C580.773 580.466 587.417 585.126 624.736 589.568C642.211 591.643 678.019 595.248 672.794 574.877C667.752 555.326 611.756 572.638 611.756 572.638L590.148 578.081ZM645.015 442.697C639.554 454.931 650.895 453.074 689.451 419.433C707.509 403.65 743.736 370.628 715.046 354.189C687.503 338.388 657.885 414.627 657.885 414.627L645.015 442.697ZM591.568 621.643C585.797 625.011 591.458 626.322 617.927 621.043C630.342 618.585 655.591 613.124 647.054 602.347C638.789 591.971 604.93 613.816 604.93 613.816L591.568 621.643Z" fill="white"/>
<path d="M630.889 467.255L626.465 393.656L630.889 467.255ZM616.89 491.539L588.928 428.243L616.89 491.539ZM689.051 473.135L622.042 482.746L689.051 473.135ZM602.399 525.653L566.119 479.106L602.399 525.653ZM608.771 511.381L658.759 513.894L608.771 511.381ZM596.938 547.08L635.167 550.866L596.938 547.08ZM587.709 569.762L568.722 541.2L587.709 569.762ZM585.524 579.847L630.47 580.266L585.524 579.847ZM576.422 664.168C576.723 664.145 577.003 664.004 577.201 663.775C577.399 663.547 577.498 663.25 577.478 662.948C574.62 620.023 591.222 549.719 617.855 492.012C634.875 455.131 701.593 382.642 702.303 381.914C702.518 381.699 702.638 381.408 702.638 381.104C702.638 380.8 702.518 380.509 702.303 380.294C702.199 380.188 702.074 380.104 701.936 380.047C701.799 379.99 701.651 379.96 701.502 379.96C701.354 379.96 701.206 379.99 701.069 380.047C700.931 380.104 700.806 380.188 700.701 380.294C700.028 381.022 633.037 453.784 615.87 490.993C588.746 550.101 572.363 619.131 575.275 663.094C575.298 663.384 575.428 663.655 575.64 663.854C575.853 664.052 576.132 664.165 576.422 664.168ZM630.871 468.383C631.172 468.365 631.453 468.228 631.654 468.003C631.855 467.778 631.96 467.483 631.945 467.182L627.594 393.546C627.587 393.397 627.55 393.25 627.486 393.114C627.421 392.978 627.331 392.857 627.219 392.757C627.107 392.657 626.976 392.58 626.834 392.532C626.692 392.483 626.542 392.463 626.392 392.472C626.091 392.491 625.81 392.628 625.609 392.853C625.408 393.078 625.303 393.373 625.318 393.674L629.742 467.273C629.756 467.563 629.881 467.836 630.091 468.036C630.301 468.236 630.581 468.347 630.871 468.347V468.383ZM617.29 492.577C617.563 492.453 617.777 492.228 617.886 491.949C617.994 491.67 617.99 491.359 617.873 491.084L589.893 427.788C589.773 427.513 589.547 427.297 589.268 427.188C588.988 427.079 588.676 427.085 588.401 427.206C588.125 427.326 587.909 427.552 587.8 427.832C587.691 428.111 587.697 428.423 587.818 428.699L615.779 491.994C615.867 492.197 616.012 492.371 616.196 492.493C616.38 492.616 616.596 492.683 616.817 492.686C617.005 492.696 617.193 492.658 617.363 492.577H617.29ZM622.133 483.839L689.105 474.263C689.267 474.26 689.426 474.222 689.573 474.153C689.719 474.084 689.849 473.985 689.954 473.862C690.059 473.739 690.137 473.595 690.182 473.44C690.228 473.284 690.24 473.121 690.218 472.961C690.196 472.801 690.14 472.647 690.055 472.51C689.969 472.372 689.855 472.255 689.721 472.165C689.587 472.074 689.435 472.014 689.276 471.986C689.116 471.959 688.953 471.966 688.796 472.006L621.823 481.581C621.524 481.601 621.244 481.738 621.046 481.963C620.848 482.189 620.748 482.483 620.767 482.783C620.787 483.082 620.924 483.362 621.149 483.56C621.375 483.758 621.669 483.858 621.969 483.839H622.133ZM603.037 526.564C603.274 526.377 603.429 526.104 603.466 525.804C603.504 525.504 603.421 525.201 603.237 524.962L566.938 478.323C566.752 478.081 566.478 477.924 566.176 477.884C565.874 477.845 565.568 477.928 565.327 478.113C565.085 478.299 564.928 478.574 564.888 478.876C564.849 479.178 564.932 479.483 565.117 479.725L601.489 526.436C601.595 526.572 601.73 526.682 601.885 526.758C602.039 526.834 602.209 526.873 602.381 526.873C602.653 526.86 602.911 526.75 603.109 526.564H603.037ZM659.76 513.948C659.77 513.647 659.661 513.354 659.457 513.133C659.253 512.911 658.969 512.779 658.668 512.765L608.771 510.235C608.49 510.254 608.227 510.375 608.03 510.576C607.834 510.777 607.717 511.043 607.704 511.324C607.691 511.604 607.781 511.88 607.957 512.099C608.134 512.318 608.384 512.464 608.662 512.51L658.65 515.04C658.951 515.05 659.244 514.941 659.466 514.737C659.687 514.533 659.819 514.249 659.833 513.948H659.76ZM636.223 550.975C636.24 550.826 636.228 550.674 636.186 550.529C636.144 550.384 636.073 550.249 635.978 550.132C635.883 550.015 635.766 549.918 635.632 549.847C635.499 549.776 635.353 549.733 635.203 549.719L596.975 545.951C596.826 545.936 596.676 545.95 596.534 545.994C596.391 546.037 596.258 546.108 596.143 546.203C596.028 546.297 595.933 546.414 595.863 546.546C595.793 546.678 595.75 546.822 595.737 546.97C595.711 547.269 595.804 547.566 595.994 547.797C596.185 548.028 596.458 548.176 596.756 548.208L634.985 551.995H635.094C635.388 552.015 635.678 551.92 635.902 551.729C636.126 551.539 636.268 551.268 636.295 550.975H636.223ZM588.255 570.708C588.508 570.541 588.684 570.281 588.745 569.984C588.807 569.687 588.748 569.378 588.583 569.125L569.687 540.563C569.514 540.316 569.252 540.147 568.957 540.089C568.662 540.032 568.356 540.09 568.103 540.253C567.85 540.42 567.674 540.681 567.612 540.977C567.551 541.274 567.61 541.583 567.775 541.837L586.671 570.399C586.779 570.555 586.923 570.683 587.091 570.772C587.259 570.86 587.446 570.907 587.636 570.909C587.883 570.922 588.126 570.852 588.328 570.708H588.255ZM631.617 580.266C631.612 579.966 631.493 579.68 631.282 579.466C631.072 579.252 630.788 579.128 630.488 579.119L585.542 578.7C585.243 578.7 584.956 578.819 584.744 579.031C584.533 579.242 584.414 579.529 584.414 579.829C584.409 579.979 584.435 580.129 584.489 580.269C584.544 580.409 584.627 580.537 584.732 580.644C584.838 580.751 584.964 580.836 585.103 580.893C585.243 580.95 585.392 580.978 585.542 580.976L630.488 581.394C630.642 581.402 630.795 581.378 630.94 581.325C631.084 581.272 631.216 581.19 631.328 581.085C631.44 580.979 631.53 580.853 631.592 580.712C631.654 580.571 631.688 580.419 631.69 580.266H631.617ZM571.307 647.475C571.398 647.275 579.062 626.158 602.108 621.116C602.405 621.05 602.664 620.87 602.828 620.614C602.991 620.358 603.047 620.047 602.982 619.75C602.908 619.459 602.725 619.208 602.471 619.048C602.217 618.889 601.911 618.834 601.617 618.895C577.314 624.21 569.25 646.51 569.159 646.729C569.065 647.016 569.087 647.329 569.219 647.6C569.352 647.872 569.585 648.082 569.869 648.185H570.233C570.475 648.206 570.717 648.148 570.924 648.02C571.131 647.892 571.29 647.701 571.38 647.475H571.307ZM576.422 664.168C576.723 664.145 577.003 664.004 577.201 663.775C577.399 663.547 577.498 663.25 577.478 662.948C574.62 620.023 591.222 549.719 617.855 492.012C634.875 455.131 701.593 382.642 702.303 381.914C702.518 381.699 702.638 381.408 702.638 381.104C702.638 380.8 702.518 380.509 702.303 380.294C702.199 380.188 702.074 380.104 701.936 380.047C701.799 379.99 701.651 379.96 701.502 379.96C701.354 379.96 701.206 379.99 701.069 380.047C700.931 380.104 700.806 380.188 700.701 380.294C700.028 381.022 633.037 453.784 615.87 490.993C588.746 550.101 572.363 619.131 575.275 663.094C575.298 663.384 575.428 663.655 575.64 663.854C575.853 664.052 576.132 664.165 576.422 664.168ZM630.871 468.383C631.172 468.365 631.453 468.228 631.654 468.003C631.855 467.778 631.96 467.483 631.945 467.182L627.594 393.546C627.587 393.397 627.55 393.25 627.486 393.114C627.421 392.978 627.331 392.857 627.219 392.757C627.107 392.657 626.976 392.58 626.834 392.532C626.692 392.483 626.542 392.463 626.392 392.472C626.091 392.491 625.81 392.628 625.609 392.853C625.408 393.078 625.303 393.373 625.318 393.674L629.742 467.273C629.756 467.563 629.881 467.836 630.091 468.036C630.301 468.236 630.581 468.347 630.871 468.347V468.383ZM617.29 492.577C617.563 492.453 617.777 492.228 617.886 491.949C617.994 491.67 617.99 491.359 617.873 491.084L589.893 427.788C589.773 427.513 589.547 427.297 589.268 427.188C588.988 427.079 588.676 427.085 588.401 427.206C588.125 427.326 587.909 427.552 587.8 427.832C587.691 428.111 587.697 428.423 587.818 428.699L615.779 491.994C615.867 492.197 616.012 492.371 616.196 492.493C616.38 492.616 616.596 492.683 616.817 492.686C617.005 492.696 617.193 492.658 617.363 492.577H617.29ZM622.133 483.839L689.105 474.263C689.267 474.26 689.426 474.222 689.573 474.153C689.719 474.084 689.849 473.985 689.954 473.862C690.059 473.739 690.137 473.595 690.182 473.44C690.228 473.284 690.24 473.121 690.218 472.961C690.196 472.801 690.14 472.647 690.055 472.51C689.969 472.372 689.855 472.255 689.721 472.165C689.587 472.074 689.435 472.014 689.276 471.986C689.116 471.959 688.953 471.966 688.796 472.006L621.823 481.581C621.524 481.601 621.244 481.738 621.046 481.963C620.848 482.189 620.748 482.483 620.767 482.783C620.787 483.082 620.924 483.362 621.149 483.56C621.375 483.758 621.669 483.858 621.969 483.839H622.133ZM603.037 526.564C603.274 526.377 603.429 526.104 603.466 525.804C603.504 525.504 603.421 525.201 603.237 524.962L566.938 478.323C566.846 478.203 566.731 478.103 566.6 478.028C566.47 477.953 566.325 477.904 566.176 477.884C566.026 477.865 565.874 477.875 565.729 477.915C565.583 477.954 565.446 478.021 565.327 478.113C565.207 478.205 565.107 478.32 565.032 478.451C564.957 478.582 564.908 478.726 564.888 478.876C564.869 479.025 564.879 479.177 564.919 479.323C564.958 479.469 565.025 479.605 565.117 479.725L601.489 526.436C601.595 526.572 601.73 526.682 601.885 526.758C602.039 526.834 602.209 526.873 602.381 526.873C602.653 526.86 602.911 526.75 603.109 526.564H603.037ZM659.76 513.948C659.77 513.647 659.661 513.354 659.457 513.133C659.253 512.911 658.969 512.779 658.668 512.765L608.771 510.235C608.49 510.254 608.227 510.375 608.03 510.576C607.834 510.777 607.717 511.043 607.704 511.324C607.691 511.604 607.781 511.88 607.957 512.099C608.134 512.318 608.384 512.464 608.662 512.51L658.65 515.04C658.951 515.05 659.244 514.941 659.466 514.737C659.687 514.533 659.819 514.249 659.833 513.948H659.76ZM636.223 550.975C636.24 550.826 636.228 550.674 636.186 550.529C636.144 550.384 636.073 550.249 635.978 550.132C635.883 550.015 635.766 549.918 635.632 549.847C635.499 549.776 635.353 549.733 635.203 549.719L596.975 545.951C596.826 545.936 596.676 545.95 596.534 545.994C596.391 546.037 596.258 546.108 596.143 546.203C596.028 546.297 595.933 546.414 595.863 546.546C595.793 546.678 595.75 546.822 595.737 546.97C595.711 547.269 595.804 547.566 595.994 547.797C596.185 548.028 596.458 548.176 596.756 548.208L634.985 551.995H635.094C635.388 552.015 635.678 551.92 635.902 551.729C636.126 551.539 636.268 551.268 636.295 550.975H636.223ZM588.255 570.708C588.508 570.541 588.684 570.281 588.745 569.984C588.807 569.687 588.748 569.378 588.583 569.125L569.687 540.563C569.514 540.316 569.252 540.147 568.957 540.089C568.662 540.032 568.356 540.09 568.103 540.253C567.85 540.42 567.674 540.681 567.612 540.977C567.551 541.274 567.61 541.583 567.775 541.837L586.671 570.399C586.779 570.555 586.923 570.683 587.091 570.772C587.259 570.86 587.446 570.907 587.636 570.909C587.883 570.922 588.126 570.852 588.328 570.708H588.255ZM631.617 580.266C631.612 579.966 631.493 579.68 631.282 579.466C631.072 579.252 630.788 579.128 630.488 579.119L585.542 578.7C585.243 578.7 584.956 578.819 584.744 579.031C584.533 579.242 584.414 579.529 584.414 579.829C584.409 579.979 584.435 580.129 584.489 580.269C584.544 580.409 584.627 580.537 584.732 580.644C584.838 580.751 584.964 580.836 585.103 580.893C585.243 580.95 585.392 580.978 585.542 580.976L630.488 581.394C630.642 581.402 630.795 581.378 630.94 581.325C631.084 581.272 631.216 581.19 631.328 581.085C631.44 580.979 631.53 580.853 631.592 580.712C631.654 580.571 631.688 580.419 631.69 580.266H631.617ZM571.307 647.475C571.398 647.275 579.062 626.158 602.108 621.116C602.405 621.05 602.664 620.87 602.828 620.614C602.991 620.358 603.047 620.047 602.982 619.75C602.908 619.459 602.725 619.208 602.471 619.048C602.217 618.889 601.911 618.834 601.617 618.895C577.314 624.21 569.25 646.51 569.159 646.729C569.065 647.016 569.087 647.329 569.219 647.6C569.352 647.872 569.585 648.082 569.869 648.185H570.233C570.475 648.206 570.717 648.148 570.924 648.02C571.131 647.892 571.29 647.701 571.38 647.475H571.307Z" fill="#92E3A9"/>
<path opacity="0.2" d="M630.889 467.255L626.465 393.656L630.889 467.255ZM616.89 491.539L588.928 428.243L616.89 491.539ZM689.051 473.135L622.042 482.746L689.051 473.135ZM602.399 525.653L566.119 479.106L602.399 525.653ZM608.771 511.381L658.759 513.894L608.771 511.381ZM596.938 547.08L635.167 550.866L596.938 547.08ZM587.709 569.762L568.722 541.2L587.709 569.762ZM585.524 579.847L630.47 580.266L585.524 579.847ZM576.422 664.168C576.723 664.145 577.003 664.004 577.201 663.775C577.399 663.547 577.498 663.25 577.478 662.948C574.62 620.023 591.222 549.719 617.855 492.012C634.875 455.131 701.593 382.642 702.303 381.914C702.518 381.699 702.638 381.408 702.638 381.104C702.638 380.8 702.518 380.509 702.303 380.294C702.199 380.188 702.074 380.104 701.936 380.047C701.799 379.99 701.651 379.96 701.502 379.96C701.354 379.96 701.206 379.99 701.069 380.047C700.931 380.104 700.806 380.188 700.701 380.294C700.028 381.022 633.037 453.784 615.87 490.993C588.746 550.101 572.363 619.131 575.275 663.094C575.298 663.384 575.428 663.655 575.64 663.854C575.853 664.052 576.132 664.165 576.422 664.168ZM630.871 468.383C631.172 468.365 631.453 468.228 631.654 468.003C631.855 467.778 631.96 467.483 631.945 467.182L627.594 393.546C627.587 393.397 627.55 393.25 627.486 393.114C627.421 392.978 627.331 392.857 627.219 392.757C627.107 392.657 626.976 392.58 626.834 392.532C626.692 392.483 626.542 392.463 626.392 392.472C626.091 392.491 625.81 392.628 625.609 392.853C625.408 393.078 625.303 393.373 625.318 393.674L629.742 467.273C629.756 467.563 629.881 467.836 630.091 468.036C630.301 468.236 630.581 468.347 630.871 468.347V468.383ZM617.29 492.577C617.563 492.453 617.777 492.228 617.886 491.949C617.994 491.67 617.99 491.359 617.873 491.084L589.893 427.788C589.773 427.513 589.547 427.297 589.268 427.188C588.988 427.079 588.676 427.085 588.401 427.206C588.125 427.326 587.909 427.552 587.8 427.832C587.691 428.111 587.697 428.423 587.818 428.699L615.779 491.994C615.867 492.197 616.012 492.371 616.196 492.493C616.38 492.616 616.596 492.683 616.817 492.686C617.005 492.696 617.193 492.658 617.363 492.577H617.29ZM622.133 483.839L689.105 474.263C689.267 474.26 689.426 474.222 689.573 474.153C689.719 474.084 689.849 473.985 689.954 473.862C690.059 473.739 690.137 473.595 690.182 473.44C690.228 473.284 690.24 473.121 690.218 472.961C690.196 472.801 690.14 472.647 690.055 472.51C689.969 472.372 689.855 472.255 689.721 472.165C689.587 472.074 689.435 472.014 689.276 471.986C689.116 471.959 688.953 471.966 688.796 472.006L621.823 481.581C621.524 481.601 621.244 481.738 621.046 481.963C620.848 482.189 620.748 482.483 620.767 482.783C620.787 483.082 620.924 483.362 621.149 483.56C621.375 483.758 621.669 483.858 621.969 483.839H622.133ZM603.037 526.564C603.274 526.377 603.429 526.104 603.466 525.804C603.504 525.504 603.421 525.201 603.237 524.962L566.938 478.323C566.752 478.081 566.478 477.924 566.176 477.884C565.874 477.845 565.568 477.928 565.327 478.113C565.085 478.299 564.928 478.574 564.888 478.876C564.849 479.178 564.932 479.483 565.117 479.725L601.489 526.436C601.595 526.572 601.73 526.682 601.885 526.758C602.039 526.834 602.209 526.873 602.381 526.873C602.653 526.86 602.911 526.75 603.109 526.564H603.037ZM659.76 513.948C659.77 513.647 659.661 513.354 659.457 513.133C659.253 512.911 658.969 512.779 658.668 512.765L608.771 510.235C608.49 510.254 608.227 510.375 608.03 510.576C607.834 510.777 607.717 511.043 607.704 511.324C607.691 511.604 607.781 511.88 607.957 512.099C608.134 512.318 608.384 512.464 608.662 512.51L658.65 515.04C658.951 515.05 659.244 514.941 659.466 514.737C659.687 514.533 659.819 514.249 659.833 513.948H659.76ZM636.223 550.975C636.24 550.826 636.228 550.674 636.186 550.529C636.144 550.384 636.073 550.249 635.978 550.132C635.883 550.015 635.766 549.918 635.632 549.847C635.499 549.776 635.353 549.733 635.203 549.719L596.975 545.951C596.826 545.936 596.676 545.95 596.534 545.994C596.391 546.037 596.258 546.108 596.143 546.203C596.028 546.297 595.933 546.414 595.863 546.546C595.793 546.678 595.75 546.822 595.737 546.97C595.711 547.269 595.804 547.566 595.994 547.797C596.185 548.028 596.458 548.176 596.756 548.208L634.985 551.995H635.094C635.388 552.015 635.678 551.92 635.902 551.729C636.126 551.539 636.268 551.268 636.295 550.975H636.223ZM588.255 570.708C588.508 570.541 588.684 570.281 588.745 569.984C588.807 569.687 588.748 569.378 588.583 569.125L569.687 540.563C569.514 540.316 569.252 540.147 568.957 540.089C568.662 540.032 568.356 540.09 568.103 540.253C567.85 540.42 567.674 540.681 567.612 540.977C567.551 541.274 567.61 541.583 567.775 541.837L586.671 570.399C586.779 570.555 586.923 570.683 587.091 570.772C587.259 570.86 587.446 570.907 587.636 570.909C587.883 570.922 588.126 570.852 588.328 570.708H588.255ZM631.617 580.266C631.612 579.966 631.493 579.68 631.282 579.466C631.072 579.252 630.788 579.128 630.488 579.119L585.542 578.7C585.243 578.7 584.956 578.819 584.744 579.031C584.533 579.242 584.414 579.529 584.414 579.829C584.409 579.979 584.435 580.129 584.489 580.269C584.544 580.409 584.627 580.537 584.732 580.644C584.838 580.751 584.964 580.836 585.103 580.893C585.243 580.95 585.392 580.978 585.542 580.976L630.488 581.394C630.642 581.402 630.795 581.378 630.94 581.325C631.084 581.272 631.216 581.19 631.328 581.085C631.44 580.979 631.53 580.853 631.592 580.712C631.654 580.571 631.688 580.419 631.69 580.266H631.617ZM571.307 647.475C571.398 647.275 579.062 626.158 602.108 621.116C602.405 621.05 602.664 620.87 602.828 620.614C602.991 620.358 603.047 620.047 602.982 619.75C602.908 619.459 602.725 619.208 602.471 619.048C602.217 618.889 601.911 618.834 601.617 618.895C577.314 624.21 569.25 646.51 569.159 646.729C569.065 647.016 569.087 647.329 569.219 647.6C569.352 647.872 569.585 648.082 569.869 648.185H570.233C570.475 648.206 570.717 648.148 570.924 648.02C571.131 647.892 571.29 647.701 571.38 647.475H571.307ZM576.422 664.168C576.723 664.145 577.003 664.004 577.201 663.775C577.399 663.547 577.498 663.25 577.478 662.948C574.62 620.023 591.222 549.719 617.855 492.012C634.875 455.131 701.593 382.642 702.303 381.914C702.518 381.699 702.638 381.408 702.638 381.104C702.638 380.8 702.518 380.509 702.303 380.294C702.199 380.188 702.074 380.104 701.936 380.047C701.799 379.99 701.651 379.96 701.502 379.96C701.354 379.96 701.206 379.99 701.069 380.047C700.931 380.104 700.806 380.188 700.701 380.294C700.028 381.022 633.037 453.784 615.87 490.993C588.746 550.101 572.363 619.131 575.275 663.094C575.298 663.384 575.428 663.655 575.64 663.854C575.853 664.052 576.132 664.165 576.422 664.168ZM630.871 468.383C631.172 468.365 631.453 468.228 631.654 468.003C631.855 467.778 631.96 467.483 631.945 467.182L627.594 393.546C627.587 393.397 627.55 393.25 627.486 393.114C627.421 392.978 627.331 392.857 627.219 392.757C627.107 392.657 626.976 392.58 626.834 392.532C626.692 392.483 626.542 392.463 626.392 392.472C626.091 392.491 625.81 392.628 625.609 392.853C625.408 393.078 625.303 393.373 625.318 393.674L629.742 467.273C629.756 467.563 629.881 467.836 630.091 468.036C630.301 468.236 630.581 468.347 630.871 468.347V468.383ZM617.29 492.577C617.563 492.453 617.777 492.228 617.886 491.949C617.994 491.67 617.99 491.359 617.873 491.084L589.893 427.788C589.773 427.513 589.547 427.297 589.268 427.188C588.988 427.079 588.676 427.085 588.401 427.206C588.125 427.326 587.909 427.552 587.8 427.832C587.691 428.111 587.697 428.423 587.818 428.699L615.779 491.994C615.867 492.197 616.012 492.371 616.196 492.493C616.38 492.616 616.596 492.683 616.817 492.686C617.005 492.696 617.193 492.658 617.363 492.577H617.29ZM622.133 483.839L689.105 474.263C689.267 474.26 689.426 474.222 689.573 474.153C689.719 474.084 689.849 473.985 689.954 473.862C690.059 473.739 690.137 473.595 690.182 473.44C690.228 473.284 690.24 473.121 690.218 472.961C690.196 472.801 690.14 472.647 690.055 472.51C689.969 472.372 689.855 472.255 689.721 472.165C689.587 472.074 689.435 472.014 689.276 471.986C689.116 471.959 688.953 471.966 688.796 472.006L621.823 481.581C621.524 481.601 621.244 481.738 621.046 481.963C620.848 482.189 620.748 482.483 620.767 482.783C620.787 483.082 620.924 483.362 621.149 483.56C621.375 483.758 621.669 483.858 621.969 483.839H622.133ZM603.037 526.564C603.274 526.377 603.429 526.104 603.466 525.804C603.504 525.504 603.421 525.201 603.237 524.962L566.938 478.323C566.846 478.203 566.731 478.103 566.6 478.028C566.47 477.953 566.325 477.904 566.176 477.884C566.026 477.865 565.874 477.875 565.729 477.915C565.583 477.954 565.446 478.021 565.327 478.113C565.207 478.205 565.107 478.32 565.032 478.451C564.957 478.582 564.908 478.726 564.888 478.876C564.869 479.025 564.879 479.177 564.919 479.323C564.958 479.469 565.025 479.605 565.117 479.725L601.489 526.436C601.595 526.572 601.73 526.682 601.885 526.758C602.039 526.834 602.209 526.873 602.381 526.873C602.653 526.86 602.911 526.75 603.109 526.564H603.037ZM659.76 513.948C659.77 513.647 659.661 513.354 659.457 513.133C659.253 512.911 658.969 512.779 658.668 512.765L608.771 510.235C608.49 510.254 608.227 510.375 608.03 510.576C607.834 510.777 607.717 511.043 607.704 511.324C607.691 511.604 607.781 511.88 607.957 512.099C608.134 512.318 608.384 512.464 608.662 512.51L658.65 515.04C658.951 515.05 659.244 514.941 659.466 514.737C659.687 514.533 659.819 514.249 659.833 513.948H659.76ZM636.223 550.975C636.24 550.826 636.228 550.674 636.186 550.529C636.144 550.384 636.073 550.249 635.978 550.132C635.883 550.015 635.766 549.918 635.632 549.847C635.499 549.776 635.353 549.733 635.203 549.719L596.975 545.951C596.826 545.936 596.676 545.95 596.534 545.994C596.391 546.037 596.258 546.108 596.143 546.203C596.028 546.297 595.933 546.414 595.863 546.546C595.793 546.678 595.75 546.822 595.737 546.97C595.711 547.269 595.804 547.566 595.994 547.797C596.185 548.028 596.458 548.176 596.756 548.208L634.985 551.995H635.094C635.388 552.015 635.678 551.92 635.902 551.729C636.126 551.539 636.268 551.268 636.295 550.975H636.223ZM588.255 570.708C588.508 570.541 588.684 570.281 588.745 569.984C588.807 569.687 588.748 569.378 588.583 569.125L569.687 540.563C569.514 540.316 569.252 540.147 568.957 540.089C568.662 540.032 568.356 540.09 568.103 540.253C567.85 540.42 567.674 540.681 567.612 540.977C567.551 541.274 567.61 541.583 567.775 541.837L586.671 570.399C586.779 570.555 586.923 570.683 587.091 570.772C587.259 570.86 587.446 570.907 587.636 570.909C587.883 570.922 588.126 570.852 588.328 570.708H588.255ZM631.617 580.266C631.612 579.966 631.493 579.68 631.282 579.466C631.072 579.252 630.788 579.128 630.488 579.119L585.542 578.7C585.243 578.7 584.956 578.819 584.744 579.031C584.533 579.242 584.414 579.529 584.414 579.829C584.409 579.979 584.435 580.129 584.489 580.269C584.544 580.409 584.627 580.537 584.732 580.644C584.838 580.751 584.964 580.836 585.103 580.893C585.243 580.95 585.392 580.978 585.542 580.976L630.488 581.394C630.642 581.402 630.795 581.378 630.94 581.325C631.084 581.272 631.216 581.19 631.328 581.085C631.44 580.979 631.53 580.853 631.592 580.712C631.654 580.571 631.688 580.419 631.69 580.266H631.617ZM571.307 647.475C571.398 647.275 579.062 626.158 602.108 621.116C602.405 621.05 602.664 620.87 602.828 620.614C602.991 620.358 603.047 620.047 602.982 619.75C602.908 619.459 602.725 619.208 602.471 619.048C602.217 618.889 601.911 618.834 601.617 618.895C577.314 624.21 569.25 646.51 569.159 646.729C569.065 647.016 569.087 647.329 569.219 647.6C569.352 647.872 569.585 648.082 569.869 648.185H570.233C570.475 648.206 570.717 648.148 570.924 648.02C571.131 647.892 571.29 647.701 571.38 647.475H571.307Z" fill="black"/>
<path d="M606.149 632.074H554.614V642.742H559.11L568.412 700.94H592.351L601.653 642.742H606.149V632.074Z" fill="#92E3A9"/>
<path opacity="0.3" d="M606.149 632.074H554.614V642.742H559.11L568.412 700.94H592.351L601.653 642.742H606.149V632.074Z" fill="white"/>
<path d="M142.163 309.498L82.217 289.929L76.8833 275.839L64.7047 275.457L42.605 271.27L45.2628 275.839L73.0786 296.027L79.9415 299.45L142.636 332.199L142.163 309.498Z" fill="white" stroke="#263238" stroke-width="1.00396" stroke-miterlimit="10"/>
<path d="M76.8834 275.839L71.1674 272.417L59.7534 276.603L61.6466 278.879L76.8834 275.839Z" fill="white" stroke="#263238" stroke-width="1.00396" stroke-linejoin="round"/>
<path d="M142.163 309.498L82.217 289.929L76.8833 275.839L64.7047 275.457L42.605 271.27L45.2628 275.839L73.0786 296.027L79.9415 299.45L142.636 332.199L142.163 309.498Z" fill="white"/>
<mask id="mask0_42_1326" style="mask-type:luminance" maskUnits="userSpaceOnUse" x="42" y="271" width="101" height="62">
<path d="M142.163 309.498L82.217 289.929L76.8833 275.839L64.7047 275.457L42.605 271.27L45.2628 275.839L73.0786 296.027L79.9415 299.45L142.636 332.199L142.163 309.498Z" fill="white"/>
</mask>
<g mask="url(#mask0_42_1326)">
<path opacity="0.5" d="M142.163 309.498L82.217 289.929L76.8833 275.839L64.7047 275.457L42.605 271.27L45.2628 275.839L73.0786 296.027L79.9415 299.45L142.636 332.199L142.163 309.498Z" fill="#92E3A9" stroke="#263238" stroke-width="1.00396" stroke-miterlimit="10"/>
</g>
<path d="M142.163 309.498L82.217 289.929L76.8833 275.839L64.7047 275.457L42.605 271.27L45.2628 275.839L73.0786 296.027L79.9415 299.45L142.636 332.199L142.163 309.498Z" stroke="#263238" stroke-width="1.00396" stroke-miterlimit="10"/>
<path d="M76.8834 275.839L71.1674 272.417L59.7534 276.603L61.6466 278.879L76.8834 275.839Z" fill="white"/>
<mask id="mask1_42_1326" style="mask-type:luminance" maskUnits="userSpaceOnUse" x="59" y="272" width="18" height="7">
<path d="M76.8834 275.839L71.1674 272.417L59.7534 276.603L61.6466 278.879L76.8834 275.839Z" fill="white"/>
</mask>
<g mask="url(#mask1_42_1326)">
<path opacity="0.5" d="M76.8834 275.839L71.1674 272.417L59.7534 276.603L61.6466 278.879L76.8834 275.839Z" fill="#92E3A9" stroke="#263238" stroke-width="1.00396" stroke-linejoin="round"/>
</g>
<path d="M76.8834 275.839L71.1674 272.417L59.7534 276.603L61.6466 278.879L76.8834 275.839Z" stroke="#263238" stroke-width="1.00396" stroke-linejoin="round"/>
<path d="M154.888 182.488C154.888 182.488 153.959 190.68 156.271 195.941C158.583 201.202 171.417 219.024 171.417 219.024L147.46 238.229C147.46 238.229 137.521 218.205 135.628 214.964C133.735 211.724 131.459 197.78 137.63 187.786C143.801 177.792 152.685 175.098 154.888 182.488Z" fill="white"/>
<mask id="mask2_42_1326" style="mask-type:luminance" maskUnits="userSpaceOnUse" x="133" y="178" width="39" height="61">
<path d="M154.888 182.488C154.888 182.488 153.959 190.68 156.271 195.941C158.583 201.202 171.417 219.024 171.417 219.024L147.46 238.229C147.46 238.229 137.521 218.205 135.628 214.964C133.735 211.724 131.459 197.78 137.63 187.786C143.801 177.792 152.685 175.098 154.888 182.488Z" fill="white"/>
</mask>
<g mask="url(#mask2_42_1326)">
<g style="mix-blend-mode:multiply" opacity="0.5">
<path d="M142.581 208.812L152.976 230.365L147.442 238.248L136.993 219.588L142.581 208.812Z" fill="#92E3A9"/>
</g>
</g>
<path d="M154.888 182.488C154.888 182.488 153.959 190.68 156.271 195.941C158.583 201.202 171.417 219.024 171.417 219.024L147.46 238.229C147.46 238.229 137.521 218.205 135.628 214.964C133.735 211.724 131.459 197.78 137.63 187.786C143.801 177.792 152.685 175.098 154.888 182.488Z" stroke="#263238" stroke-width="1.00396" stroke-miterlimit="10"/>
<path d="M162.315 167.488C160.841 158.386 150.41 139.873 133.862 140.583C123.122 141.056 118.098 143.222 113.437 145.862C109.639 148.1 106.098 150.749 102.879 153.762C94.7963 163.465 91.9565 166.123 93.5221 173.55C93.3936 176.513 93.8578 179.471 94.8874 182.252C97.3631 188.86 99.0561 193.174 101.204 196.324C100.549 199.4 98.8377 207.519 98.7466 209.376C98.6556 211.233 104.208 209.94 107.011 209.23C112.218 220.881 121.757 228.963 124.724 229.892C129.894 231.512 138.067 223.011 142.4 216.421C146.733 209.831 143.456 202.422 143.474 199.473C143.492 196.524 153.213 190.043 156.818 187.986C160.422 185.929 163.772 176.572 162.315 167.488Z" fill="white"/>
<mask id="mask3_42_1326" style="mask-type:luminance" maskUnits="userSpaceOnUse" x="93" y="140" width="70" height="91">
<path d="M162.315 167.488C160.841 158.386 150.41 139.873 133.862 140.583C123.122 141.056 118.098 143.222 113.437 145.862C109.639 148.1 106.098 150.749 102.879 153.762C94.7963 163.465 91.9565 166.123 93.5221 173.55C93.3936 176.513 93.8578 179.471 94.8874 182.252C97.3631 188.86 99.0561 193.174 101.204 196.324C100.549 199.4 98.8377 207.519 98.7466 209.376C98.6556 211.233 104.208 209.94 107.011 209.23C112.218 220.881 121.757 228.963 124.724 229.892C129.894 231.512 138.067 223.011 142.4 216.421C146.733 209.831 143.456 202.422 143.474 199.473C143.492 196.524 153.213 190.043 156.818 187.986C160.422 185.929 163.772 176.572 162.315 167.488Z" fill="white"/>
</mask>
<g mask="url(#mask3_42_1326)">
<g style="mix-blend-mode:multiply" opacity="0.5">
<path d="M93.5952 173.55C93.4668 176.513 93.9309 179.471 94.9605 182.252C97.4363 188.86 99.1293 193.174 101.277 196.324C100.622 199.4 98.9108 207.519 98.8198 209.376C98.7288 211.233 104.281 209.94 107.084 209.23C112.291 220.881 121.83 228.963 124.797 229.892C129.967 231.512 138.141 223.011 142.473 216.421C143.556 214.776 144.258 212.91 144.53 210.96C144.294 210.104 144.13 209.576 144.13 209.576C144.13 209.576 141.69 218.951 136.848 217.732C132.006 216.512 124.597 206.809 120.464 203.46C116.332 200.11 118.025 195.705 117.206 190.717C116.387 185.729 104.154 181.342 103.334 178.484C102.515 175.626 105.373 163.793 105.373 163.793C105.373 163.793 110.015 157.603 109.014 160.152C108.306 162.362 108.05 164.691 108.259 167.002C108.469 169.313 109.14 171.558 110.234 173.605C111.001 175.22 112.218 176.579 113.739 177.518C115.26 178.458 117.02 178.939 118.808 178.902L123.25 156.894L113.875 149.139L102.952 153.69C94.7967 163.465 92.0115 166.123 93.5952 173.55Z" fill="#92E3A9"/>
</g>
</g>
<path d="M162.315 167.488C160.841 158.386 150.41 139.873 133.862 140.583C123.122 141.056 118.098 143.222 113.437 145.862C109.639 148.1 106.098 150.749 102.879 153.762C94.7963 163.465 91.9565 166.123 93.5221 173.55C93.3936 176.513 93.8578 179.471 94.8874 182.252C97.3631 188.86 99.0561 193.174 101.204 196.324C100.549 199.4 98.8377 207.519 98.7466 209.376C98.6556 211.233 104.208 209.94 107.011 209.23C112.218 220.881 121.757 228.963 124.724 229.892C129.894 231.512 138.067 223.011 142.4 216.421C146.733 209.831 143.456 202.422 143.474 199.473C143.492 196.524 153.213 190.043 156.818 187.986C160.422 185.929 163.772 176.572 162.315 167.488Z" stroke="#263238" stroke-miterlimit="10"/>
<path d="M103.461 190.826L105.282 196.032C105.282 196.032 109.196 197.325 113.965 192.118" stroke="#263238" stroke-miterlimit="10" stroke-linecap="round"/>
<path d="M116.914 215.147C116.914 215.147 121.247 214.71 122.994 208.63" stroke="#263238" stroke-miterlimit="10" stroke-linecap="round"/>
<path d="M100.421 186.475C100.421 186.475 101.714 182.561 109.523 182.561" stroke="#263238" stroke-miterlimit="10" stroke-linecap="round"/>
<path d="M140.452 133.337C134.777 132.521 129.055 132.084 123.322 132.027C123.322 132.027 106.174 122.142 89.6991 132.682C73.2245 143.222 81.1432 161.681 81.1432 166.287C81.1432 170.892 75.8641 170.911 79.159 176.845C82.4539 182.78 93.5948 179.503 93.5948 179.503C93.7126 177.265 94.3041 175.077 95.3302 173.084C96.3564 171.091 97.7938 169.339 99.5475 167.943C105.482 163.338 110.215 162.337 112.181 163.665C112.181 163.665 110.87 173.55 112.837 177.501C112.837 177.501 119.426 180.795 121.411 180.795C123.395 180.795 120.118 183.581 126.69 186.056C127.887 186.486 129.168 186.633 130.431 186.484C131.695 186.336 132.906 185.897 133.971 185.201C134.936 181.196 137.048 175.17 140.98 176.572C146.751 178.629 152.012 192.828 144.202 197.671C153.595 199.382 164.973 182.761 165.647 167.616C166.32 152.47 150.209 135.049 140.452 133.337Z" fill="#263238"/>
<path d="M112.472 157.167C112.472 157.167 117.314 154.563 123.249 160.134C129.184 165.704 140.725 173.15 156.016 169.054" stroke="white" stroke-width="0.5" stroke-linecap="round" stroke-linejoin="round"/>
<path d="M111.799 152.707C111.799 152.707 115.131 147.5 120.701 147.5C126.272 147.5 139.287 155.31 149.682 155.31" stroke="white" stroke-width="0.5" stroke-linecap="round" stroke-linejoin="round"/>
<path d="M108.013 162.737C108.013 162.737 101.696 154.946 95.7613 161.263C89.8267 167.579 93.595 173.55 93.595 173.55" stroke="white" stroke-width="0.5" stroke-linecap="round" stroke-linejoin="round"/>
<path d="M82.7632 167.943C86.3831 164.679 88.6333 160.165 89.0618 155.31C89.8082 147.136 100.967 140.073 108.012 146.772" stroke="white" stroke-width="0.5" stroke-linecap="round" stroke-linejoin="round"/>
<path d="M94.2686 138.216C94.2686 138.216 105.428 127.439 114.712 141.183" stroke="white" stroke-width="0.5" stroke-linecap="round" stroke-linejoin="round"/>
<path d="M185.088 668.082C185.088 668.082 191.951 678.75 191.187 685.613L190.44 692.476C190.44 692.476 165.264 699.375 159.93 699.375C154.597 699.375 126.362 696.699 126.362 696.699L125.142 691.857C125.057 691.499 125.097 691.123 125.256 690.791C125.415 690.46 125.684 690.193 126.016 690.036L151.192 678.295L159.129 669.611L185.088 668.082Z" fill="white" stroke="#263238" stroke-width="1.00396" stroke-miterlimit="10"/>
<path d="M163.753 694.005C170.58 694.533 183.541 690.364 191.059 687.706L190.531 692.476C190.531 692.476 165.264 699.375 159.93 699.375C154.597 699.375 126.362 696.699 126.362 696.699L125.488 693.24C130.003 693.258 154.724 693.313 163.753 694.005Z" fill="#92E3A9" stroke="#263238" stroke-width="1.00396" stroke-miterlimit="10"/>
<path d="M151.229 678.295L114.584 694.241C114.584 694.241 111.453 702.087 114.584 703.653C117.715 705.218 185.98 703.653 185.98 703.653C185.98 703.653 190.695 691.256 183.25 682.937C175.804 674.617 151.229 678.295 151.229 678.295Z" fill="white" stroke="#263238" stroke-width="1.00396" stroke-miterlimit="10"/>
<path d="M185.981 703.653C185.981 703.653 117.715 705.218 114.584 703.653C113.073 702.888 113.019 700.686 113.365 698.592H187.182C186.941 700.313 186.539 702.007 185.981 703.653Z" fill="#92E3A9" stroke="#263238" stroke-width="1.00396" stroke-miterlimit="10"/>
<path d="M133.899 401.21C133.899 401.21 124.323 443.644 120.701 470.186C117.078 496.727 114.948 549.901 115.713 556C116.478 562.098 154.597 664.277 154.597 664.277L158.402 673.379L185.089 668.046C185.089 668.046 172.892 629.162 168.323 607.808C163.754 586.455 153.759 551.376 153.759 545.277C153.759 539.179 177.425 422.709 179.118 415.064C180.811 407.418 188.493 395.676 188.493 395.676L137.394 394.639L133.899 401.21Z" fill="#92E3A9" stroke="#263238" stroke-width="1.00396" stroke-miterlimit="10"/>
<path d="M133.899 401.21C133.899 401.21 128.292 439.967 130.604 466.909C132.916 493.851 137.886 551.212 137.886 559.75C137.886 568.287 151.666 619.277 152.449 635.297C153.668 658.434 151.957 669.884 151.957 669.884L151.138 678.276C151.138 678.276 167.212 680.57 170.726 681.571C174.784 682.617 178.971 683.07 183.159 682.918C183.159 682.918 189.003 657.196 189.003 635.278C189.003 613.361 184.142 568.251 181.721 549.974C179.3 531.697 186.927 461.193 191.26 448.031C195.592 434.87 205.059 406.999 198.687 392.764C192.316 378.528 133.899 401.21 133.899 401.21Z" fill="#92E3A9" stroke="#263238" stroke-width="1.00396" stroke-miterlimit="10"/>
<path d="M205.768 385.628L205.186 402.958C205.186 402.958 194.809 405.015 180.829 407.436C169.287 409.439 140.306 406.908 130.549 405.962C129.66 405.883 128.838 405.456 128.262 404.774C127.685 404.092 127.402 403.211 127.473 402.321L128.419 386.665L205.768 385.628Z" fill="#263238"/>
<path d="M165.21 212.871C165.21 212.871 148.826 230.584 142.655 241.597C136.484 252.611 134.044 269.486 131.732 282.775C129.42 296.064 135.683 327.265 133.917 341.592L128.328 386.72C128.328 386.72 127.127 389.778 131.15 393.128C135.173 396.477 154.815 397.697 172.564 398.589C179.045 398.917 198.396 394.748 201.563 394.548C205.386 394.311 205.513 389.451 205.677 385.628C206.442 367.66 209.682 319.765 211.812 298.903C216.199 256.361 192.188 215.292 165.21 212.871Z" fill="white" stroke="#263238" stroke-width="1.00396" stroke-miterlimit="10"/>
<g style="mix-blend-mode:multiply">
<path d="M209.81 323.097C210.538 313.649 211.266 305.075 211.903 298.903C212.085 297.083 212.194 295.263 212.285 293.442L168.759 300.724L131.368 287.981C131.372 295.718 131.81 303.449 132.679 311.137L169.36 321.404L209.81 323.097Z" fill="#92E3A9"/>
</g>
<g style="mix-blend-mode:multiply">
<path d="M163.589 214.655C161.114 217.404 156.198 222.993 151.52 228.927L179.154 257.016L188.256 253.375L163.589 214.655Z" fill="#92E3A9"/>
</g>
<path d="M165.21 212.871C165.21 212.871 148.826 230.584 142.655 241.597C140.825 244.944 139.343 248.47 138.231 252.119L171.181 214.054C169.234 213.465 167.234 213.068 165.21 212.871Z" fill="#263238"/>
<g style="mix-blend-mode:multiply">
<path d="M133.007 275.602L168.76 287.362L212.176 282.374C211.496 271.559 209.093 260.921 205.059 250.863L170.052 264.898L138.759 250.717C136.201 258.851 134.277 267.171 133.007 275.602Z" fill="#92E3A9"/>
</g>
<g style="mix-blend-mode:multiply">
<path d="M194.555 367.66C176.421 370.705 157.815 369.185 140.416 363.237L131.696 360.251L128.984 382.096L138.923 384.881C157.819 390.164 177.567 391.686 197.049 389.36L205.077 388.395C205.495 387.51 205.73 386.551 205.769 385.573C205.987 380.713 206.369 373.649 206.861 365.549L194.555 367.66Z" fill="#92E3A9"/>
</g>
<g style="mix-blend-mode:multiply">
<path d="M199.415 337.915C181.281 340.971 162.67 339.445 145.276 333.473L134.172 329.668C134.447 333.635 134.392 337.617 134.008 341.574L132.715 352.078L143.783 355.172C162.671 360.461 182.414 361.989 201.891 359.669L207.352 359.013C207.807 351.732 208.335 343.977 208.899 336.313L199.415 337.915Z" fill="#92E3A9"/>
</g>
<path d="M28.6269 260.933L63.8252 289.234L65.3423 287.347L30.144 259.047L28.6269 260.933Z" fill="#263238"/>
<path d="M182.157 232.513C182.157 232.513 195.064 241.306 195.355 262.077C195.483 271.179 194.536 279.68 192.443 294.589C190.349 309.498 177.352 358.049 167.23 363.947C157.109 369.845 141.399 358.704 141.399 358.704L65.4148 308.26L47.0469 293.424L37.9448 276.239L40.8029 270.778L63.2121 287.963L51.1428 276.804L53.5093 273.8L57.8783 276.84L70.6211 281.61L73.4064 299.814L77.3384 302.508L150.027 329.068C150.027 329.068 149.117 289.947 149.791 282.465C150.464 274.983 151.393 256.179 159.402 242.544" fill="white"/>
<mask id="mask4_42_1326" style="mask-type:luminance" maskUnits="userSpaceOnUse" x="37" y="232" width="159" height="134">
<path d="M182.157 232.513C182.157 232.513 195.064 241.306 195.355 262.077C195.483 271.179 194.536 279.68 192.443 294.589C190.349 309.498 177.352 358.049 167.23 363.947C157.109 369.845 141.399 358.704 141.399 358.704L65.4148 308.26L47.0469 293.424L37.9448 276.239L40.8029 270.778L63.2121 287.963L51.1428 276.804L53.5093 273.8L57.8783 276.84L70.6211 281.61L73.4064 299.814L77.3384 302.508L150.027 329.068C150.027 329.068 149.117 289.947 149.791 282.465C150.464 274.983 151.393 256.179 159.402 242.544" fill="white"/>
</mask>
<g mask="url(#mask4_42_1326)">
<g style="mix-blend-mode:multiply" opacity="0.5">
<path d="M149.518 299.504C149.518 313.012 149.973 329.068 149.973 329.068L77.357 302.617L73.4249 299.923L70.6397 281.719L57.8968 276.949L53.5461 273.855L51.1795 276.858L63.2124 287.963L40.8032 270.778L38.0908 276.148L47.1929 293.333L65.5608 308.26L70.1846 311.337L170.58 343.686L149.518 299.504Z" fill="#92E3A9"/>
</g>
</g>
<path d="M182.157 232.513C182.157 232.513 195.064 241.306 195.355 262.077C195.483 271.179 194.536 279.68 192.443 294.589C190.349 309.498 177.352 358.049 167.23 363.947C157.109 369.845 141.399 358.704 141.399 358.704L65.4148 308.26L47.0469 293.424L37.9448 276.239L40.8029 270.778L63.2121 287.963L51.1428 276.804L53.5093 273.8L57.8783 276.84L70.6211 281.61L73.4064 299.814L77.3384 302.508L150.027 329.068C150.027 329.068 149.117 289.947 149.791 282.465C150.464 274.983 151.393 256.179 159.402 242.544" stroke="#263238" stroke-width="1.00396" stroke-miterlimit="10"/>
<path d="M150.028 329.068L177.771 349.092L184.961 336.349C184.961 336.349 189.931 332.435 190.659 329.486C191.387 326.537 190.459 321.75 191.205 318.801C191.952 315.852 195.665 313.085 196.011 305.949C196.357 298.813 196.011 292.86 196.011 292.86C196.011 292.86 202.018 268.157 201.363 257.416C200.708 246.676 190.35 227.689 182.049 227.271C173.747 226.852 162.952 228.108 154.579 240.778C146.205 253.448 147.916 290.439 146.605 292.751C145.295 295.062 147.115 306.476 147.115 306.476C146.387 307.019 145.784 307.71 145.344 308.505C144.905 309.299 144.64 310.177 144.566 311.082C144.421 314.049 147.625 321.349 147.625 321.349L150.028 329.068Z" fill="white" stroke="#263238" stroke-width="1.00396" stroke-miterlimit="10"/>
<g style="mix-blend-mode:multiply">
<path d="M147.333 283.248C147.39 286.425 147.152 289.6 146.623 292.732C145.458 294.808 146.787 304.183 147.078 306.094C162.682 310.941 179.182 312.186 195.337 309.735C195.684 308.469 195.892 307.169 195.956 305.857C196.32 298.74 195.956 292.769 195.956 292.769C195.956 292.769 196.484 290.566 197.212 287.216C180.482 288.28 163.685 286.944 147.333 283.248Z" fill="#92E3A9"/>
</g>
<g style="mix-blend-mode:multiply">
<path d="M153.45 242.799C150.847 248.023 149.391 255.869 148.553 263.824C165.079 270.131 182.897 272.3 200.453 270.141C201.153 265.931 201.464 261.665 201.381 257.398C201.066 254.025 200.269 250.715 199.015 247.568C183.685 247.926 168.373 246.323 153.45 242.799Z" fill="#92E3A9"/>
</g>
<path d="M147.625 321.549L149.973 329.068L177.716 349.092L184.906 336.349C184.906 336.349 189.876 332.435 190.604 329.486C190.734 328.973 190.814 328.449 190.841 327.921C176.221 327.668 161.695 325.527 147.625 321.549Z" fill="#263238"/>
<path d="M167.704 681.335C167.704 681.335 168.323 665.57 171.344 642.524C174.366 619.477 167.103 586.746 165.883 581.285C164.664 575.824 166.502 563.7 165.282 559.44C164.063 555.18 158.165 537.013 161.642 515.932C165.119 494.852 167.94 439.129 167.94 439.129C167.94 439.129 159.184 432.012 156.617 422.746C154.051 413.48 156.017 410.567 156.017 410.567" stroke="#263238" stroke-width="1.00396" stroke-miterlimit="10"/>
<path d="M171.763 411.423L168.395 430.064" stroke="#263238" stroke-width="1.00396" stroke-miterlimit="10"/>
</svg>
