<svg width="137" height="36" viewBox="0 0 137 36" fill="none" xmlns="http://www.w3.org/2000/svg">
<rect y="0.732056" width="136.328" height="35" rx="17.5" fill="#323F2E"/>
<path d="M23.448 13.0361C24.344 13.0361 25.056 13.3081 25.584 13.8521C26.128 14.3961 26.4 15.0681 26.4 15.8681C26.4 16.1721 26.368 16.4521 26.304 16.7081C26.144 17.3641 25.84 17.8681 25.392 18.2201C24.944 18.5721 24.408 18.7481 23.784 18.7481C23.176 18.7481 22.712 18.6041 22.392 18.3161C22.088 18.0281 21.816 17.6441 21.576 17.1641C21.448 16.8921 21.328 16.6921 21.216 16.5641C21.104 16.4361 20.976 16.3721 20.832 16.3721C20.672 16.3721 20.528 16.4361 20.4 16.5641C20.288 16.6921 20.184 16.9161 20.088 17.2361L18.24 23.2361C18.208 23.3161 18.192 23.4361 18.192 23.5961C18.192 23.8041 18.248 23.9801 18.36 24.1241C18.488 24.2521 18.656 24.3801 18.864 24.5081C19.056 24.6361 19.184 24.7401 19.248 24.8201C19.312 24.9001 19.336 25.0041 19.32 25.1321C19.288 25.3401 19.168 25.4921 18.96 25.5881C18.768 25.6841 18.432 25.7321 17.952 25.7321H11.808C11.392 25.7321 11.096 25.6681 10.92 25.5401C10.728 25.3961 10.656 25.2121 10.704 24.9881C10.768 24.7961 10.936 24.6281 11.208 24.4841C11.448 24.3561 11.648 24.2041 11.808 24.0281C11.968 23.8521 12.104 23.5721 12.216 23.1881L14.352 16.2521C14.384 16.1721 14.4 16.0601 14.4 15.9161C14.4 15.7401 14.36 15.6041 14.28 15.5081C14.216 15.4121 14.104 15.2921 13.944 15.1481C13.784 15.0201 13.672 14.9081 13.608 14.8121C13.544 14.7161 13.536 14.5881 13.584 14.4281C13.68 14.0601 14.184 13.7401 15.096 13.4681C16.008 13.1801 16.96 13.0361 17.952 13.0361C18.608 13.0361 19.152 13.1881 19.584 13.4921C20.016 13.7801 20.296 14.1961 20.424 14.7401C21.192 13.6041 22.2 13.0361 23.448 13.0361ZM34.8504 13.0361C37.0264 13.0361 38.6264 13.4761 39.6504 14.3561C40.6904 15.2361 41.2104 16.3881 41.2104 17.8121C41.2104 18.2921 41.1464 18.8281 41.0184 19.4201C40.7144 20.7321 40.1464 21.8841 39.3144 22.8761C38.4824 23.8521 37.4584 24.6121 36.2424 25.1561C35.0424 25.6841 33.7384 25.9481 32.3304 25.9481C30.1064 25.9481 28.4584 25.5081 27.3864 24.6281C26.3304 23.7321 25.8024 22.5481 25.8024 21.0761C25.8024 20.5801 25.8664 20.0281 25.9944 19.4201C26.2984 18.1721 26.8744 17.0681 27.7224 16.1081C28.5864 15.1321 29.6344 14.3801 30.8664 13.8521C32.1144 13.3081 33.4424 13.0361 34.8504 13.0361ZM34.7784 15.1721C34.4424 15.1721 34.0824 15.4761 33.6984 16.0841C33.3304 16.6761 32.8904 17.8041 32.3784 19.4681C31.8664 21.1321 31.6104 22.3001 31.6104 22.9721C31.6104 23.3241 31.6664 23.5641 31.7784 23.6921C31.8904 23.8041 32.0424 23.8601 32.2344 23.8601C32.5704 23.8921 32.9144 23.6041 33.2664 22.9961C33.6344 22.3881 34.0904 21.2041 34.6344 19.4441C35.1304 17.8921 35.3784 16.7641 35.3784 16.0601C35.3784 15.7241 35.3224 15.4921 35.2104 15.3641C35.1144 15.2361 34.9704 15.1721 34.7784 15.1721ZM56.1684 22.4201C56.1364 22.4841 56.1204 22.5801 56.1204 22.7081C56.1204 22.8201 56.1444 22.9081 56.1924 22.9721C56.2564 23.0361 56.3364 23.0681 56.4324 23.0681C56.6244 23.0681 56.7844 22.9881 56.9124 22.8281C57.0564 22.6521 57.1524 22.5641 57.2004 22.5641C57.2804 22.5641 57.3444 22.6201 57.3924 22.7321C57.4404 22.8281 57.4644 22.9481 57.4644 23.0921C57.4804 23.5561 57.3284 24.0121 57.0084 24.4601C56.6884 24.8921 56.2164 25.2521 55.5924 25.5401C54.9844 25.8121 54.2484 25.9481 53.3844 25.9481C52.3284 25.9481 51.4884 25.7081 50.8644 25.2281C50.2404 24.7321 49.9204 24.0761 49.9044 23.2601C49.9044 22.6681 50.0484 22.0041 50.3364 21.2681L51.6564 17.8121C51.7364 17.6041 51.7764 17.4361 51.7764 17.3081C51.7764 17.1001 51.7044 16.9401 51.5604 16.8281C51.4324 16.7001 51.2724 16.6361 51.0804 16.6361C50.7284 16.6361 50.3924 16.8041 50.0724 17.1401C49.7524 17.4601 49.5204 17.8601 49.3764 18.3401L47.8884 23.2361C47.8244 23.4121 47.7924 23.5801 47.7924 23.7401C47.7924 23.9321 47.8324 24.0921 47.9124 24.2201C47.9924 24.3321 48.1044 24.4521 48.2484 24.5801C48.3604 24.6761 48.4404 24.7641 48.4884 24.8441C48.5364 24.9241 48.5444 25.0201 48.5124 25.1321C48.4484 25.3401 48.2964 25.4921 48.0564 25.5881C47.8164 25.6841 47.4404 25.7321 46.9284 25.7321H41.4564C41.0404 25.7321 40.7444 25.6681 40.5684 25.5401C40.3764 25.3961 40.3044 25.2121 40.3524 24.9881C40.4164 24.7961 40.5844 24.6281 40.8564 24.4841C41.0964 24.3561 41.2964 24.2041 41.4564 24.0281C41.6164 23.8521 41.7524 23.5721 41.8644 23.1881L44.0004 16.2521C44.0324 16.1721 44.0484 16.0601 44.0484 15.9161C44.0484 15.7401 44.0084 15.6041 43.9284 15.5081C43.8644 15.4121 43.7524 15.2921 43.5924 15.1481C43.4324 15.0201 43.3204 14.9081 43.2564 14.8121C43.1924 14.7161 43.1844 14.5881 43.2324 14.4281C43.3284 14.0601 43.8324 13.7401 44.7444 13.4681C45.6564 13.1801 46.6084 13.0361 47.6004 13.0361C48.4004 13.0361 49.0324 13.2601 49.4964 13.7081C49.9604 14.1401 50.1684 14.7481 50.1204 15.5321C50.7764 14.5881 51.4724 13.9401 52.2084 13.5881C52.9444 13.2201 53.7444 13.0361 54.6084 13.0361C55.5844 13.0361 56.3684 13.3321 56.9604 13.9241C57.5684 14.5161 57.8724 15.2841 57.8724 16.2281C57.8724 16.7241 57.7924 17.2121 57.6324 17.6921L56.1684 22.4201ZM67.4681 9.60405C68.3641 9.60405 69.1881 9.71605 69.9401 9.94005C70.7081 10.1481 71.4841 10.4841 72.2681 10.9481L72.8201 10.4921C73.2041 10.1881 73.5161 9.98005 73.7561 9.86806C74.0121 9.75605 74.3001 9.70005 74.6201 9.70005C75.0041 9.70005 75.3081 9.78805 75.5321 9.96406C75.7561 10.1241 75.8681 10.3641 75.8681 10.6841C75.8681 10.8121 75.8441 10.9481 75.7961 11.0921L74.7881 14.4041C74.6761 14.7881 74.5321 15.0601 74.3561 15.2201C74.1961 15.3801 73.9481 15.4601 73.6121 15.4601C73.2601 15.4601 72.9481 15.3561 72.6761 15.1481C72.4201 14.9241 72.0121 14.4761 71.4521 13.8041C70.8921 13.1641 70.3801 12.7161 69.9161 12.4601C69.4681 12.1881 69.0041 12.0521 68.5241 12.0521C68.1721 12.0521 67.8761 12.1721 67.6361 12.4121C67.3961 12.6361 67.2761 12.9161 67.2761 13.2521C67.2761 13.6361 67.4681 13.9961 67.8521 14.3321C68.2361 14.6521 68.8361 15.0601 69.6521 15.5561C70.4841 16.0521 71.1721 16.5001 71.7161 16.9001C72.2601 17.3001 72.7241 17.7961 73.1081 18.3881C73.4921 18.9801 73.6841 19.6601 73.6841 20.4281C73.6841 20.9241 73.6041 21.4201 73.4441 21.9161C73.0601 23.1961 72.3161 24.1721 71.2121 24.8441C70.1081 25.5001 68.8201 25.8281 67.3481 25.8281C66.2441 25.8281 65.3161 25.7001 64.5641 25.4441C63.8121 25.1881 63.0441 24.7561 62.2601 24.1481L61.3961 24.8681C60.9961 25.2041 60.6681 25.4361 60.4121 25.5641C60.1561 25.6761 59.8681 25.7321 59.5481 25.7321C59.1801 25.7321 58.8841 25.6441 58.6601 25.4681C58.4521 25.2921 58.3481 25.0521 58.3481 24.7481C58.3481 24.5881 58.3801 24.4201 58.4441 24.2441L59.6201 20.6681C59.7481 20.2521 59.9241 19.9561 60.1481 19.7801C60.3721 19.6041 60.6601 19.5161 61.0121 19.5161C61.3801 19.5161 61.7081 19.6441 61.9961 19.9001C62.3001 20.1561 62.6921 20.6201 63.1721 21.2921C63.6841 22.0281 64.1561 22.5401 64.5881 22.8281C65.0361 23.1161 65.5641 23.2601 66.1721 23.2601C66.6041 23.2601 66.9321 23.1961 67.1561 23.0681C67.3961 22.9241 67.5641 22.7001 67.6601 22.3961C67.6921 22.3161 67.7081 22.1961 67.7081 22.0361C67.7081 21.6521 67.5241 21.3001 67.1561 20.9801C66.7881 20.6601 66.2201 20.2761 65.4521 19.8281C64.6361 19.3321 63.9721 18.8921 63.4601 18.5081C62.9481 18.1081 62.5001 17.6121 62.1161 17.0201C61.7481 16.4281 61.5641 15.7321 61.5641 14.9321C61.5641 14.3721 61.6521 13.8201 61.8281 13.2761C62.1641 12.1721 62.8521 11.2841 63.8921 10.6121C64.9321 9.94005 66.1241 9.60405 67.4681 9.60405ZM89.751 22.4201C89.719 22.4841 89.703 22.5801 89.703 22.7081C89.703 22.8201 89.727 22.9081 89.775 22.9721C89.839 23.0361 89.919 23.0681 90.015 23.0681C90.207 23.0681 90.367 22.9881 90.495 22.8281C90.639 22.6521 90.735 22.5641 90.783 22.5641C90.863 22.5641 90.927 22.6201 90.975 22.7321C91.023 22.8281 91.047 22.9481 91.047 23.0921C91.063 23.5561 90.911 24.0121 90.591 24.4601C90.271 24.8921 89.799 25.2521 89.175 25.5401C88.567 25.8121 87.831 25.9481 86.967 25.9481C85.911 25.9481 85.071 25.7081 84.447 25.2281C83.823 24.7321 83.503 24.0761 83.487 23.2601C83.487 22.6681 83.631 22.0041 83.919 21.2681L85.239 17.8121C85.319 17.6041 85.359 17.4361 85.359 17.3081C85.359 17.1001 85.287 16.9401 85.143 16.8281C85.015 16.7001 84.855 16.6361 84.663 16.6361C84.359 16.6361 84.047 16.7801 83.727 17.0681C83.423 17.3401 83.175 17.7881 82.983 18.4121V18.3641L81.471 23.2361C81.423 23.4281 81.399 23.5961 81.399 23.7401C81.399 23.9481 81.439 24.1161 81.519 24.2441C81.599 24.3561 81.711 24.4681 81.855 24.5801C81.967 24.6921 82.047 24.7881 82.095 24.8681C82.143 24.9321 82.151 25.0201 82.119 25.1321C82.039 25.3401 81.879 25.4921 81.639 25.5881C81.399 25.6841 81.031 25.7321 80.535 25.7321H75.063C74.647 25.7321 74.343 25.6681 74.151 25.5401C73.959 25.3961 73.895 25.2121 73.959 24.9881C74.023 24.7961 74.191 24.6281 74.463 24.4841C74.703 24.3561 74.903 24.2041 75.063 24.0281C75.223 23.8521 75.359 23.5721 75.471 23.1881L79.119 11.2121C79.167 11.0681 79.191 10.9481 79.191 10.8521C79.191 10.6761 79.143 10.5321 79.047 10.4201C78.967 10.3081 78.855 10.1961 78.711 10.0841C78.551 9.95606 78.431 9.84406 78.351 9.74806C78.287 9.65205 78.279 9.52405 78.327 9.36405C78.423 8.99605 78.927 8.67605 79.839 8.40405C80.751 8.13205 81.703 7.99606 82.695 7.99606C83.623 7.99606 84.303 8.17206 84.735 8.52406C85.183 8.87605 85.407 9.35605 85.407 9.96406C85.407 10.3161 85.351 10.6601 85.239 10.9961L83.943 15.2201C84.567 14.4041 85.223 13.8361 85.911 13.5161C86.615 13.1961 87.375 13.0361 88.191 13.0361C89.167 13.0361 89.951 13.3321 90.543 13.9241C91.151 14.5161 91.455 15.2841 91.455 16.2281C91.455 16.7241 91.375 17.2121 91.215 17.6921L89.751 22.4201ZM101.366 13.0361C103.542 13.0361 105.142 13.4761 106.166 14.3561C107.206 15.2361 107.726 16.3881 107.726 17.8121C107.726 18.2921 107.662 18.8281 107.534 19.4201C107.23 20.7321 106.662 21.8841 105.83 22.8761C104.998 23.8521 103.974 24.6121 102.758 25.1561C101.558 25.6841 100.254 25.9481 98.8461 25.9481C96.6221 25.9481 94.9741 25.5081 93.9021 24.6281C92.8461 23.7321 92.3181 22.5481 92.3181 21.0761C92.3181 20.5801 92.3821 20.0281 92.5101 19.4201C92.8141 18.1721 93.3901 17.0681 94.2381 16.1081C95.1021 15.1321 96.1501 14.3801 97.3821 13.8521C98.6301 13.3081 99.9581 13.0361 101.366 13.0361ZM101.294 15.1721C100.958 15.1721 100.598 15.4761 100.214 16.0841C99.8461 16.6761 99.4061 17.8041 98.8941 19.4681C98.3821 21.1321 98.1261 22.3001 98.1261 22.9721C98.1261 23.3241 98.1821 23.5641 98.2941 23.6921C98.4061 23.8041 98.5581 23.8601 98.7501 23.8601C99.0861 23.8921 99.4301 23.6041 99.7821 22.9961C100.15 22.3881 100.606 21.2041 101.15 19.4441C101.646 17.8921 101.894 16.7641 101.894 16.0601C101.894 15.7241 101.838 15.4921 101.726 15.3641C101.63 15.2361 101.486 15.1721 101.294 15.1721ZM119.911 12.9401C121.143 12.9401 122.111 13.3481 122.815 14.1641C123.519 14.9801 123.871 16.0921 123.871 17.5001C123.871 18.2521 123.767 19.0441 123.559 19.8761C123.079 21.8601 122.183 23.3721 120.871 24.4121C119.559 25.4361 118.039 25.9481 116.311 25.9481C115.207 25.9481 114.247 25.7161 113.431 25.2521L112.663 27.8201C112.599 27.9961 112.567 28.1641 112.567 28.3241C112.567 28.5001 112.607 28.6441 112.687 28.7561C112.767 28.8841 112.871 29.0041 112.999 29.1161C113.127 29.2441 113.207 29.3481 113.239 29.4281C113.287 29.5081 113.295 29.6041 113.263 29.7161C113.199 29.9241 113.047 30.0681 112.807 30.1481C112.567 30.2441 112.199 30.2921 111.703 30.2921H106.207C105.791 30.2921 105.495 30.2201 105.319 30.0761C105.127 29.9481 105.071 29.7801 105.151 29.5721C105.183 29.4441 105.239 29.3401 105.319 29.2601C105.399 29.1801 105.511 29.1081 105.655 29.0441C105.895 28.8841 106.087 28.7161 106.231 28.5401C106.375 28.3801 106.503 28.1161 106.615 27.7481L110.119 16.2521C110.167 16.1081 110.191 15.9881 110.191 15.8921C110.191 15.7161 110.151 15.5801 110.071 15.4841C109.991 15.3721 109.871 15.2601 109.711 15.1481C109.551 15.0201 109.439 14.9081 109.375 14.8121C109.311 14.7161 109.303 14.5881 109.351 14.4281C109.447 14.0601 109.951 13.7401 110.863 13.4681C111.775 13.1801 112.727 13.0361 113.719 13.0361C114.423 13.0361 114.999 13.2121 115.447 13.5641C115.911 13.9161 116.175 14.4041 116.239 15.0281C117.327 13.6361 118.551 12.9401 119.911 12.9401ZM117.127 20.0681C117.511 18.6441 117.703 17.6601 117.703 17.1161C117.703 16.7801 117.647 16.5641 117.535 16.4681C117.439 16.3561 117.295 16.3001 117.103 16.3001C116.959 16.3001 116.775 16.3721 116.551 16.5161C116.327 16.6441 116.103 16.8681 115.879 17.1881L113.983 23.4761C114.175 23.6681 114.407 23.7641 114.679 23.7641C115.111 23.7641 115.519 23.5241 115.903 23.0441C116.303 22.5481 116.711 21.5561 117.127 20.0681Z" fill="#E6E6E6"/>
<path d="M121.859 27.5258C122.363 27.1762 122.65 26.513 123.058 25.3828C123.016 26.5834 123.036 27.3058 123.376 27.818C123.715 28.3299 124.363 28.6174 125.468 29.0241C124.291 28.9911 123.582 29.0175 123.077 29.3668C122.572 29.7176 122.285 30.3808 121.877 31.5119C121.919 30.3104 121.899 29.588 121.56 29.0761C121.222 28.5629 120.574 28.2753 119.47 27.8689C120.646 27.9017 121.354 27.8753 121.859 27.5258Z" fill="#E65039"/>
</svg>
