<svg width="201" height="48" viewBox="0 0 201 48" fill="none" xmlns="http://www.w3.org/2000/svg">
<rect x="0.674927" y="0.647522" width="200" height="47" rx="23.5" fill="#323F2E"/>
<path d="M41.3869 16.7195C42.5816 16.7195 43.5309 17.0822 44.2349 17.8075C44.9603 18.5329 45.3229 19.4289 45.3229 20.4955C45.3229 20.9009 45.2803 21.2742 45.1949 21.6155C44.9816 22.4902 44.5763 23.1622 43.9789 23.6315C43.3816 24.1009 42.6669 24.3355 41.8349 24.3355C41.0243 24.3355 40.4056 24.1435 39.9789 23.7595C39.5736 23.3755 39.2109 22.8635 38.8909 22.2235C38.7203 21.8609 38.5603 21.5942 38.4109 21.4235C38.2616 21.2529 38.0909 21.1675 37.8989 21.1675C37.6856 21.1675 37.4936 21.2529 37.3229 21.4235C37.1736 21.5942 37.0349 21.8929 36.9069 22.3195L34.4429 30.3195C34.4003 30.4262 34.3789 30.5862 34.3789 30.7995C34.3789 31.0769 34.4536 31.3115 34.6029 31.5035C34.7736 31.6742 34.9976 31.8449 35.2749 32.0155C35.5309 32.1862 35.7016 32.3249 35.7869 32.4315C35.8723 32.5382 35.9043 32.6769 35.8829 32.8475C35.8403 33.1249 35.6803 33.3275 35.4029 33.4555C35.1469 33.5835 34.6989 33.6475 34.0589 33.6475H25.8669C25.3123 33.6475 24.9176 33.5622 24.6829 33.3915C24.4269 33.1995 24.3309 32.9542 24.3949 32.6555C24.4803 32.3995 24.7043 32.1755 25.0669 31.9835C25.3869 31.8129 25.6536 31.6102 25.8669 31.3755C26.0803 31.1409 26.2616 30.7675 26.4109 30.2555L29.2589 21.0075C29.3016 20.9009 29.3229 20.7515 29.3229 20.5595C29.3229 20.3249 29.2696 20.1435 29.1629 20.0155C29.0776 19.8875 28.9283 19.7275 28.7149 19.5355C28.5016 19.3649 28.3523 19.2155 28.2669 19.0875C28.1816 18.9595 28.1709 18.7889 28.2349 18.5755C28.3629 18.0849 29.0349 17.6582 30.2509 17.2955C31.4669 16.9115 32.7363 16.7195 34.0589 16.7195C34.9336 16.7195 35.6589 16.9222 36.2349 17.3275C36.8109 17.7115 37.1843 18.2662 37.3549 18.9915C38.3789 17.4769 39.7229 16.7195 41.3869 16.7195ZM56.5902 16.7195C59.4915 16.7195 61.6248 17.3062 62.9902 18.4795C64.3768 19.6529 65.0702 21.1889 65.0702 23.0875C65.0702 23.7275 64.9848 24.4422 64.8142 25.2315C64.4088 26.9809 63.6515 28.5169 62.5422 29.8395C61.4328 31.1409 60.0675 32.1542 58.4462 32.8795C56.8462 33.5835 55.1075 33.9355 53.2302 33.9355C50.2648 33.9355 48.0675 33.3489 46.6382 32.1755C45.2302 30.9809 44.5262 29.4022 44.5262 27.4395C44.5262 26.7782 44.6115 26.0422 44.7822 25.2315C45.1875 23.5675 45.9555 22.0955 47.0862 20.8155C48.2382 19.5142 49.6355 18.5115 51.2782 17.8075C52.9422 17.0822 54.7128 16.7195 56.5902 16.7195ZM56.4942 19.5675C56.0462 19.5675 55.5662 19.9729 55.0542 20.7835C54.5635 21.5729 53.9768 23.0769 53.2942 25.2955C52.6115 27.5142 52.2702 29.0715 52.2702 29.9675C52.2702 30.4369 52.3448 30.7569 52.4942 30.9275C52.6435 31.0769 52.8462 31.1515 53.1022 31.1515C53.5502 31.1942 54.0088 30.8102 54.4782 29.9995C54.9688 29.1889 55.5768 27.6102 56.3022 25.2635C56.9635 23.1942 57.2942 21.6902 57.2942 20.7515C57.2942 20.3035 57.2195 19.9942 57.0702 19.8235C56.9422 19.6529 56.7502 19.5675 56.4942 19.5675ZM85.0142 29.2315C84.9715 29.3169 84.9502 29.4449 84.9502 29.6155C84.9502 29.7649 84.9822 29.8822 85.0462 29.9675C85.1315 30.0529 85.2382 30.0955 85.3662 30.0955C85.6222 30.0955 85.8355 29.9889 86.0062 29.7755C86.1982 29.5409 86.3262 29.4235 86.3902 29.4235C86.4968 29.4235 86.5822 29.4982 86.6462 29.6475C86.7102 29.7755 86.7422 29.9355 86.7422 30.1275C86.7635 30.7462 86.5608 31.3542 86.1342 31.9515C85.7075 32.5275 85.0782 33.0075 84.2462 33.3915C83.4355 33.7542 82.4542 33.9355 81.3022 33.9355C79.8942 33.9355 78.7742 33.6155 77.9422 32.9755C77.1102 32.3142 76.6835 31.4395 76.6622 30.3515C76.6622 29.5622 76.8542 28.6769 77.2382 27.6955L78.9982 23.0875C79.1048 22.8102 79.1582 22.5862 79.1582 22.4155C79.1582 22.1382 79.0622 21.9249 78.8702 21.7755C78.6995 21.6049 78.4862 21.5195 78.2302 21.5195C77.7608 21.5195 77.3128 21.7435 76.8862 22.1915C76.4595 22.6182 76.1502 23.1515 75.9582 23.7915L73.9742 30.3195C73.8888 30.5542 73.8462 30.7782 73.8462 30.9915C73.8462 31.2475 73.8995 31.4609 74.0062 31.6315C74.1128 31.7809 74.2622 31.9409 74.4542 32.1115C74.6035 32.2395 74.7102 32.3569 74.7742 32.4635C74.8382 32.5702 74.8488 32.6982 74.8062 32.8475C74.7208 33.1249 74.5182 33.3275 74.1982 33.4555C73.8782 33.5835 73.3768 33.6475 72.6942 33.6475H65.3982C64.8435 33.6475 64.4488 33.5622 64.2142 33.3915C63.9582 33.1995 63.8622 32.9542 63.9262 32.6555C64.0115 32.3995 64.2355 32.1755 64.5982 31.9835C64.9182 31.8129 65.1848 31.6102 65.3982 31.3755C65.6115 31.1409 65.7928 30.7675 65.9422 30.2555L68.7902 21.0075C68.8328 20.9009 68.8542 20.7515 68.8542 20.5595C68.8542 20.3249 68.8008 20.1435 68.6942 20.0155C68.6088 19.8875 68.4595 19.7275 68.2462 19.5355C68.0328 19.3649 67.8835 19.2155 67.7982 19.0875C67.7128 18.9595 67.7022 18.7889 67.7662 18.5755C67.8942 18.0849 68.5662 17.6582 69.7822 17.2955C70.9982 16.9115 72.2675 16.7195 73.5902 16.7195C74.6568 16.7195 75.4995 17.0182 76.1182 17.6155C76.7368 18.1915 77.0142 19.0022 76.9502 20.0475C77.8248 18.7889 78.7528 17.9249 79.7342 17.4555C80.7155 16.9649 81.7822 16.7195 82.9342 16.7195C84.2355 16.7195 85.2808 17.1142 86.0702 17.9035C86.8808 18.6929 87.2862 19.7169 87.2862 20.9755C87.2862 21.6369 87.1795 22.2875 86.9662 22.9275L85.0142 29.2315ZM100.08 12.1435C101.275 12.1435 102.374 12.2929 103.376 12.5915C104.4 12.8689 105.435 13.3169 106.48 13.9355L107.216 13.3275C107.728 12.9222 108.144 12.6449 108.464 12.4955C108.806 12.3462 109.19 12.2715 109.616 12.2715C110.128 12.2715 110.534 12.3889 110.832 12.6235C111.131 12.8369 111.28 13.1569 111.28 13.5835C111.28 13.7542 111.248 13.9355 111.184 14.1275L109.84 18.5435C109.691 19.0555 109.499 19.4182 109.264 19.6315C109.051 19.8449 108.72 19.9515 108.272 19.9515C107.803 19.9515 107.387 19.8129 107.024 19.5355C106.683 19.2369 106.139 18.6395 105.392 17.7435C104.646 16.8902 103.963 16.2929 103.344 15.9515C102.747 15.5889 102.128 15.4075 101.488 15.4075C101.019 15.4075 100.624 15.5675 100.304 15.8875C99.9844 16.1862 99.8244 16.5595 99.8244 17.0075C99.8244 17.5195 100.08 17.9995 100.592 18.4475C101.104 18.8742 101.904 19.4182 102.992 20.0795C104.102 20.7409 105.019 21.3382 105.744 21.8715C106.47 22.4049 107.088 23.0662 107.6 23.8555C108.112 24.6449 108.368 25.5515 108.368 26.5755C108.368 27.2369 108.262 27.8982 108.048 28.5595C107.536 30.2662 106.544 31.5675 105.072 32.4635C103.6 33.3382 101.883 33.7755 99.9204 33.7755C98.4484 33.7755 97.2111 33.6049 96.2084 33.2635C95.2058 32.9222 94.1818 32.3462 93.1364 31.5355L91.9844 32.4955C91.4511 32.9435 91.0138 33.2529 90.6724 33.4235C90.3311 33.5729 89.9471 33.6475 89.5204 33.6475C89.0298 33.6475 88.6351 33.5302 88.3364 33.2955C88.0591 33.0609 87.9204 32.7409 87.9204 32.3355C87.9204 32.1222 87.9631 31.8982 88.0484 31.6635L89.6164 26.8955C89.7871 26.3409 90.0218 25.9462 90.3204 25.7115C90.6191 25.4769 91.0031 25.3595 91.4724 25.3595C91.9631 25.3595 92.4004 25.5302 92.7844 25.8715C93.1898 26.2129 93.7124 26.8315 94.3524 27.7275C95.0351 28.7089 95.6644 29.3915 96.2404 29.7755C96.8378 30.1595 97.5418 30.3515 98.3524 30.3515C98.9284 30.3515 99.3658 30.2662 99.6644 30.0955C99.9844 29.9035 100.208 29.6049 100.336 29.1995C100.379 29.0929 100.4 28.9329 100.4 28.7195C100.4 28.2075 100.155 27.7382 99.6644 27.3115C99.1738 26.8849 98.4164 26.3729 97.3924 25.7755C96.3044 25.1142 95.4191 24.5275 94.7364 24.0155C94.0538 23.4822 93.4564 22.8209 92.9444 22.0315C92.4538 21.2422 92.2084 20.3142 92.2084 19.2475C92.2084 18.5009 92.3258 17.7649 92.5604 17.0395C93.0084 15.5675 93.9258 14.3835 95.3124 13.4875C96.6991 12.5915 98.2884 12.1435 100.08 12.1435ZM129.791 29.2315C129.748 29.3169 129.727 29.4449 129.727 29.6155C129.727 29.7649 129.759 29.8822 129.823 29.9675C129.908 30.0529 130.015 30.0955 130.143 30.0955C130.399 30.0955 130.612 29.9889 130.783 29.7755C130.975 29.5409 131.103 29.4235 131.167 29.4235C131.274 29.4235 131.359 29.4982 131.423 29.6475C131.487 29.7755 131.519 29.9355 131.519 30.1275C131.54 30.7462 131.338 31.3542 130.911 31.9515C130.484 32.5275 129.855 33.0075 129.023 33.3915C128.212 33.7542 127.231 33.9355 126.079 33.9355C124.671 33.9355 123.551 33.6155 122.719 32.9755C121.887 32.3142 121.46 31.4395 121.439 30.3515C121.439 29.5622 121.631 28.6769 122.015 27.6955L123.775 23.0875C123.882 22.8102 123.935 22.5862 123.935 22.4155C123.935 22.1382 123.839 21.9249 123.647 21.7755C123.476 21.6049 123.263 21.5195 123.007 21.5195C122.602 21.5195 122.186 21.7115 121.759 22.0955C121.354 22.4582 121.023 23.0555 120.767 23.8875V23.8235L118.751 30.3195C118.687 30.5755 118.655 30.7995 118.655 30.9915C118.655 31.2689 118.708 31.4929 118.815 31.6635C118.922 31.8129 119.071 31.9622 119.263 32.1115C119.412 32.2609 119.519 32.3889 119.583 32.4955C119.647 32.5809 119.658 32.6982 119.615 32.8475C119.508 33.1249 119.295 33.3275 118.975 33.4555C118.655 33.5835 118.164 33.6475 117.503 33.6475H110.207C109.652 33.6475 109.247 33.5622 108.991 33.3915C108.735 33.1995 108.65 32.9542 108.735 32.6555C108.82 32.3995 109.044 32.1755 109.407 31.9835C109.727 31.8129 109.994 31.6102 110.207 31.3755C110.42 31.1409 110.602 30.7675 110.751 30.2555L115.615 14.2875C115.679 14.0955 115.711 13.9355 115.711 13.8075C115.711 13.5729 115.647 13.3809 115.519 13.2315C115.412 13.0822 115.263 12.9329 115.071 12.7835C114.858 12.6129 114.698 12.4635 114.591 12.3355C114.506 12.2075 114.495 12.0369 114.559 11.8235C114.687 11.3329 115.359 10.9062 116.575 10.5435C117.791 10.1809 119.06 9.99952 120.383 9.99952C121.62 9.99952 122.527 10.2342 123.103 10.7035C123.7 11.1729 123.999 11.8129 123.999 12.6235C123.999 13.0929 123.924 13.5515 123.775 13.9995L122.047 19.6315C122.879 18.5435 123.754 17.7862 124.671 17.3595C125.61 16.9329 126.623 16.7195 127.711 16.7195C129.012 16.7195 130.058 17.1142 130.847 17.9035C131.658 18.6929 132.063 19.7169 132.063 20.9755C132.063 21.6369 131.956 22.2875 131.743 22.9275L129.791 29.2315ZM145.278 16.7195C148.179 16.7195 150.312 17.3062 151.678 18.4795C153.064 19.6529 153.758 21.1889 153.758 23.0875C153.758 23.7275 153.672 24.4422 153.502 25.2315C153.096 26.9809 152.339 28.5169 151.23 29.8395C150.12 31.1409 148.755 32.1542 147.134 32.8795C145.534 33.5835 143.795 33.9355 141.918 33.9355C138.952 33.9355 136.755 33.3489 135.326 32.1755C133.918 30.9809 133.214 29.4022 133.214 27.4395C133.214 26.7782 133.299 26.0422 133.47 25.2315C133.875 23.5675 134.643 22.0955 135.774 20.8155C136.926 19.5142 138.323 18.5115 139.966 17.8075C141.63 17.0822 143.4 16.7195 145.278 16.7195ZM145.182 19.5675C144.734 19.5675 144.254 19.9729 143.742 20.7835C143.251 21.5729 142.664 23.0769 141.982 25.2955C141.299 27.5142 140.958 29.0715 140.958 29.9675C140.958 30.4369 141.032 30.7569 141.182 30.9275C141.331 31.0769 141.534 31.1515 141.79 31.1515C142.238 31.1942 142.696 30.8102 143.166 29.9995C143.656 29.1889 144.264 27.6102 144.99 25.2635C145.651 23.1942 145.982 21.6902 145.982 20.7515C145.982 20.3035 145.907 19.9942 145.758 19.8235C145.63 19.6529 145.438 19.5675 145.182 19.5675ZM170.005 16.5915C171.647 16.5915 172.938 17.1355 173.877 18.2235C174.815 19.3115 175.285 20.7942 175.285 22.6715C175.285 23.6742 175.146 24.7302 174.869 25.8395C174.229 28.4849 173.034 30.5009 171.285 31.8875C169.535 33.2529 167.509 33.9355 165.205 33.9355C163.733 33.9355 162.453 33.6262 161.365 33.0075L160.341 36.4315C160.255 36.6662 160.213 36.8902 160.213 37.1035C160.213 37.3382 160.266 37.5302 160.373 37.6795C160.479 37.8502 160.618 38.0102 160.789 38.1595C160.959 38.3302 161.066 38.4689 161.109 38.5755C161.173 38.6822 161.183 38.8102 161.141 38.9595C161.055 39.2369 160.853 39.4289 160.533 39.5355C160.213 39.6635 159.722 39.7275 159.061 39.7275H151.733C151.178 39.7275 150.783 39.6315 150.549 39.4395C150.293 39.2689 150.218 39.0449 150.325 38.7675C150.367 38.5969 150.442 38.4582 150.549 38.3515C150.655 38.2449 150.805 38.1489 150.997 38.0635C151.317 37.8502 151.573 37.6262 151.765 37.3915C151.957 37.1782 152.127 36.8262 152.277 36.3355L156.949 21.0075C157.013 20.8155 157.045 20.6555 157.045 20.5275C157.045 20.2929 156.991 20.1115 156.885 19.9835C156.778 19.8342 156.618 19.6849 156.405 19.5355C156.191 19.3649 156.042 19.2155 155.957 19.0875C155.871 18.9595 155.861 18.7889 155.925 18.5755C156.053 18.0849 156.725 17.6582 157.941 17.2955C159.157 16.9115 160.426 16.7195 161.749 16.7195C162.687 16.7195 163.455 16.9542 164.053 17.4235C164.671 17.8929 165.023 18.5435 165.109 19.3755C166.559 17.5195 168.191 16.5915 170.005 16.5915ZM166.293 26.0955C166.805 24.1969 167.061 22.8849 167.061 22.1595C167.061 21.7115 166.986 21.4235 166.837 21.2955C166.709 21.1462 166.517 21.0715 166.261 21.0715C166.069 21.0715 165.823 21.1675 165.525 21.3595C165.226 21.5302 164.927 21.8289 164.629 22.2555L162.101 30.6395C162.357 30.8955 162.666 31.0235 163.029 31.0235C163.605 31.0235 164.149 30.7035 164.661 30.0635C165.194 29.4022 165.738 28.0795 166.293 26.0955Z" fill="white"/>
<path d="M174.455 34.7103C175.464 34.0112 176.039 32.6848 176.853 30.4243C176.77 32.8256 176.81 34.2704 177.49 35.2947C178.167 36.3186 179.463 36.8937 181.674 37.707C179.319 37.641 177.903 37.6938 176.891 38.3924C175.881 39.0941 175.307 40.4205 174.492 42.6828C174.576 40.2797 174.536 38.8349 173.858 37.8111C173.182 36.7846 171.886 36.2095 169.677 35.3965C172.03 35.4622 173.446 35.4094 174.455 34.7103Z" fill="#E65039"/>
</svg>
